<mxfile host="app.diagrams.net" modified="2023-02-10T00:15:30.582Z" agent="5.0 (Windows NT 10.0; Win64; x64) AppleWebKit/537.36 (KHTML, like Gecko) Chrome/109.0.0.0 Safari/537.36" etag="fkkel3ciBLqGp0Sam13J" version="20.8.19" type="github">
  <diagram id="piDafpqhtRUU5qUU-vj8" name="Page-1">
    <mxGraphModel dx="1715" dy="689" grid="1" gridSize="10" guides="1" tooltips="1" connect="1" arrows="1" fold="1" page="1" pageScale="1" pageWidth="827" pageHeight="1169" math="0" shadow="0">
      <root>
        <mxCell id="0" />
        <mxCell id="1" parent="0" />
        <UserObject label="https://us.123rf.com/450wm/dzm1try/dzm1try1807/dzm1try180700223/dzm1try180700223.jpg?ver=6" link="https://us.123rf.com/450wm/dzm1try/dzm1try1807/dzm1try180700223/dzm1try180700223.jpg?ver=6" id="8962rQQDY3VNNf6We3Pp-1">
          <mxCell style="strokeWidth=1;shadow=0;dashed=0;align=center;html=1;shape=mxgraph.mockup.containers.browserWindow;rSize=0;strokeColor2=#008cff;strokeColor3=#c4c4c4;mainText=,;recursiveResize=0;strokeColor=#FFFFFF;fontColor=#FFFFFF;labelBackgroundColor=#807a94;labelBorderColor=default;" parent="1" vertex="1">
            <mxGeometry x="-30" y="20" width="870" height="1280" as="geometry" />
          </mxCell>
        </UserObject>
        <mxCell id="8962rQQDY3VNNf6We3Pp-2" value="Page 2" style="strokeWidth=1;shadow=0;dashed=0;align=center;html=1;shape=mxgraph.mockup.containers.anchor;fontSize=17;fontColor=#666666;align=left;" parent="8962rQQDY3VNNf6We3Pp-1" vertex="1">
          <mxGeometry x="60" y="12" width="110" height="26" as="geometry" />
        </mxCell>
        <mxCell id="8962rQQDY3VNNf6We3Pp-3" value="https://www.sim-apps.com" style="strokeWidth=1;shadow=0;dashed=0;align=center;html=1;shape=mxgraph.mockup.containers.anchor;rSize=0;fontSize=17;fontColor=#666666;align=left;" parent="8962rQQDY3VNNf6We3Pp-1" vertex="1">
          <mxGeometry x="130" y="60" width="250" height="26" as="geometry" />
        </mxCell>
        <mxCell id="8962rQQDY3VNNf6We3Pp-4" value="&#xa;&lt;span style=&quot;color: rgb(0, 0, 0); font-family: Helvetica; font-size: 12px; font-style: normal; font-variant-ligatures: normal; font-variant-caps: normal; font-weight: 400; letter-spacing: normal; orphans: 2; text-align: center; text-indent: 0px; text-transform: none; widows: 2; word-spacing: 0px; -webkit-text-stroke-width: 0px; background-color: rgb(251, 251, 251); text-decoration-thickness: initial; text-decoration-style: initial; text-decoration-color: initial; float: none; display: inline !important;&quot;&gt;hull_1_5_m/s&lt;/span&gt;&#xa;&#xa;" style="verticalLabelPosition=bottom;shadow=0;dashed=0;align=center;html=1;verticalAlign=top;strokeWidth=1;shape=mxgraph.mockup.containers.videoPlayer;strokeColor=#666666;strokeColor2=#008cff;strokeColor3=#c4c4c4;textColor=#666666;fillColor2=#008cff;barHeight=30;barPos=20;" parent="8962rQQDY3VNNf6We3Pp-1" vertex="1">
          <mxGeometry y="142" width="860" height="570" as="geometry" />
        </mxCell>
        <mxCell id="8962rQQDY3VNNf6We3Pp-16" value="The simulation company" style="text;html=1;strokeColor=none;fillColor=none;align=center;verticalAlign=middle;whiteSpace=wrap;rounded=0;fontSize=13;fontColor=#0066CC;" parent="8962rQQDY3VNNf6We3Pp-1" vertex="1">
          <mxGeometry x="698" y="200" width="150" height="20" as="geometry" />
        </mxCell>
        <mxCell id="8962rQQDY3VNNf6We3Pp-18" value="" style="verticalLabelPosition=bottom;shadow=0;dashed=0;align=center;html=1;verticalAlign=top;strokeWidth=1;shape=mxgraph.mockup.graphics.simpleIcon;strokeColor=#999999;fontSize=13;fontColor=#0066CC;" parent="8962rQQDY3VNNf6We3Pp-1" vertex="1">
          <mxGeometry x="680" y="800" width="50" height="50" as="geometry" />
        </mxCell>
        <mxCell id="8962rQQDY3VNNf6We3Pp-19" value="" style="verticalLabelPosition=bottom;shadow=0;dashed=0;align=center;html=1;verticalAlign=top;strokeWidth=1;shape=mxgraph.mockup.graphics.simpleIcon;strokeColor=#999999;fontSize=13;fontColor=#0066CC;" parent="8962rQQDY3VNNf6We3Pp-1" vertex="1">
          <mxGeometry x="780" y="800" width="50" height="50" as="geometry" />
        </mxCell>
        <mxCell id="8962rQQDY3VNNf6We3Pp-20" value="" style="verticalLabelPosition=bottom;shadow=0;dashed=0;align=center;html=1;verticalAlign=top;strokeWidth=1;shape=mxgraph.mockup.graphics.simpleIcon;strokeColor=#999999;fontSize=13;fontColor=#0066CC;" parent="8962rQQDY3VNNf6We3Pp-1" vertex="1">
          <mxGeometry x="880" y="800" width="50" height="50" as="geometry" />
        </mxCell>
        <mxCell id="8962rQQDY3VNNf6We3Pp-21" value="" style="verticalLabelPosition=bottom;shadow=0;dashed=0;align=center;html=1;verticalAlign=top;strokeWidth=1;shape=mxgraph.mockup.graphics.simpleIcon;strokeColor=#999999;fontSize=13;fontColor=#0066CC;" parent="8962rQQDY3VNNf6We3Pp-1" vertex="1">
          <mxGeometry x="680" y="890" width="50" height="50" as="geometry" />
        </mxCell>
        <mxCell id="8962rQQDY3VNNf6We3Pp-22" value="" style="verticalLabelPosition=bottom;shadow=0;dashed=0;align=center;html=1;verticalAlign=top;strokeWidth=1;shape=mxgraph.mockup.graphics.simpleIcon;strokeColor=#999999;fontSize=13;fontColor=#0066CC;" parent="8962rQQDY3VNNf6We3Pp-1" vertex="1">
          <mxGeometry x="780" y="890" width="50" height="50" as="geometry" />
        </mxCell>
        <mxCell id="8962rQQDY3VNNf6We3Pp-23" value="" style="verticalLabelPosition=bottom;shadow=0;dashed=0;align=center;html=1;verticalAlign=top;strokeWidth=1;shape=mxgraph.mockup.graphics.simpleIcon;strokeColor=#999999;fontSize=13;fontColor=#0066CC;" parent="8962rQQDY3VNNf6We3Pp-1" vertex="1">
          <mxGeometry x="880" y="890" width="50" height="50" as="geometry" />
        </mxCell>
        <mxCell id="8962rQQDY3VNNf6We3Pp-24" value="" style="verticalLabelPosition=bottom;shadow=0;dashed=0;align=center;html=1;verticalAlign=top;strokeWidth=1;shape=mxgraph.mockup.graphics.simpleIcon;strokeColor=#999999;fontSize=13;fontColor=#0066CC;" parent="8962rQQDY3VNNf6We3Pp-1" vertex="1">
          <mxGeometry x="680" y="980" width="50" height="50" as="geometry" />
        </mxCell>
        <mxCell id="8962rQQDY3VNNf6We3Pp-25" value="" style="verticalLabelPosition=bottom;shadow=0;dashed=0;align=center;html=1;verticalAlign=top;strokeWidth=1;shape=mxgraph.mockup.graphics.simpleIcon;strokeColor=#999999;fontSize=13;fontColor=#0066CC;" parent="8962rQQDY3VNNf6We3Pp-1" vertex="1">
          <mxGeometry x="780" y="980" width="50" height="50" as="geometry" />
        </mxCell>
        <mxCell id="8962rQQDY3VNNf6We3Pp-26" value="" style="verticalLabelPosition=bottom;shadow=0;dashed=0;align=center;html=1;verticalAlign=top;strokeWidth=1;shape=mxgraph.mockup.graphics.simpleIcon;strokeColor=#999999;fontSize=13;fontColor=#0066CC;" parent="8962rQQDY3VNNf6We3Pp-1" vertex="1">
          <mxGeometry x="880" y="980" width="50" height="50" as="geometry" />
        </mxCell>
        <mxCell id="8962rQQDY3VNNf6We3Pp-27" value="" style="strokeWidth=1;shadow=0;dashed=0;align=center;html=1;shape=mxgraph.mockup.buttons.multiButton;fillColor=#008cff;strokeColor=#666666;mainText=;subText=;fontSize=13;fontColor=#0066CC;" parent="8962rQQDY3VNNf6We3Pp-1" vertex="1">
          <mxGeometry x="204" y="810" width="200" height="210" as="geometry" />
        </mxCell>
        <mxCell id="8962rQQDY3VNNf6We3Pp-28" value="These companies&lt;br&gt;trust us" style="strokeWidth=1;shadow=0;dashed=0;align=center;html=1;shape=mxgraph.mockup.anchor;fontSize=16;fontColor=#ffffff;fontStyle=1;whiteSpace=wrap;" parent="8962rQQDY3VNNf6We3Pp-27" vertex="1">
          <mxGeometry y="33.6" width="200" height="84" as="geometry" />
        </mxCell>
        <mxCell id="8962rQQDY3VNNf6We3Pp-29" value="" style="strokeWidth=1;shadow=0;dashed=0;align=center;html=1;shape=mxgraph.mockup.anchor;fontSize=12;fontColor=#ffffff;fontStyle=1;whiteSpace=wrap;" parent="8962rQQDY3VNNf6We3Pp-27" vertex="1">
          <mxGeometry y="126" width="200" height="42" as="geometry" />
        </mxCell>
        <mxCell id="8962rQQDY3VNNf6We3Pp-35" value="" style="verticalLabelPosition=bottom;shadow=0;dashed=0;align=center;html=1;verticalAlign=top;strokeWidth=1;shape=mxgraph.mockup.markup.line;strokeColor=#999999;fillColor=#008CFF;fontSize=13;fontColor=#0066CC;" parent="8962rQQDY3VNNf6We3Pp-1" vertex="1">
          <mxGeometry y="1180" width="1150" height="20" as="geometry" />
        </mxCell>
        <mxCell id="8962rQQDY3VNNf6We3Pp-30" value="" style="shape=rect;fillColor=#ffffff;strokeColor=#eeeeee;shadow=0;fontSize=13;fontColor=#0066CC;" parent="8962rQQDY3VNNf6We3Pp-1" vertex="1">
          <mxGeometry x="425" y="1230" width="300" height="40" as="geometry" />
        </mxCell>
        <mxCell id="8962rQQDY3VNNf6We3Pp-31" value="BUTTON" style="shape=rect;strokeColor=none;fillColor=none;fontSize=12;fontColor=#2196F3;dashed=0;" parent="8962rQQDY3VNNf6We3Pp-30" vertex="1">
          <mxGeometry width="75" height="40" as="geometry" />
        </mxCell>
        <mxCell id="8962rQQDY3VNNf6We3Pp-32" value="BUTTON" style="shape=rect;strokeColor=none;fillColor=none;fontSize=12;fontColor=#2196F3;dashed=0;" parent="8962rQQDY3VNNf6We3Pp-30" vertex="1">
          <mxGeometry x="75" width="75" height="40" as="geometry" />
        </mxCell>
        <mxCell id="8962rQQDY3VNNf6We3Pp-33" value="BUTTON" style="shape=rect;strokeColor=none;fillColor=none;fontSize=12;fontColor=#2196F3;dashed=0;" parent="8962rQQDY3VNNf6We3Pp-30" vertex="1">
          <mxGeometry x="150" width="75" height="40" as="geometry" />
        </mxCell>
        <mxCell id="8962rQQDY3VNNf6We3Pp-34" value="BUTTON" style="shape=rect;strokeColor=none;fillColor=none;fontSize=12;fontColor=#2196F3;dashed=0;" parent="8962rQQDY3VNNf6We3Pp-30" vertex="1">
          <mxGeometry x="225" width="75" height="40" as="geometry" />
        </mxCell>
        <mxCell id="8962rQQDY3VNNf6We3Pp-36" value="" style="shape=image;html=1;verticalAlign=top;verticalLabelPosition=bottom;labelBackgroundColor=#ffffff;imageAspect=0;aspect=fixed;image=https://cdn3.iconfinder.com/data/icons/peelicons-vol-1/50/LinkedIn-128.png;fillColor=#008CFF;fontSize=13;fontColor=#0066CC;" parent="8962rQQDY3VNNf6We3Pp-1" vertex="1">
          <mxGeometry x="870" y="1235" width="30" height="30" as="geometry" />
        </mxCell>
        <mxCell id="8962rQQDY3VNNf6We3Pp-37" value="" style="shape=image;html=1;verticalAlign=top;verticalLabelPosition=bottom;labelBackgroundColor=#ffffff;imageAspect=0;aspect=fixed;image=https://cdn3.iconfinder.com/data/icons/peelicons-vol-1/50/Facebook-128.png;fillColor=#008CFF;fontSize=13;fontColor=#0066CC;" parent="8962rQQDY3VNNf6We3Pp-1" vertex="1">
          <mxGeometry x="920" y="1235" width="30" height="30" as="geometry" />
        </mxCell>
        <mxCell id="8962rQQDY3VNNf6We3Pp-38" value="" style="shape=image;html=1;verticalAlign=top;verticalLabelPosition=bottom;labelBackgroundColor=#ffffff;imageAspect=0;aspect=fixed;image=https://cdn3.iconfinder.com/data/icons/peelicons-vol-1/50/Twitter-128.png;fillColor=#008CFF;fontSize=13;fontColor=#0066CC;" parent="8962rQQDY3VNNf6We3Pp-1" vertex="1">
          <mxGeometry x="970" y="1235" width="30" height="30" as="geometry" />
        </mxCell>
        <mxCell id="seymav8gBYocV3_De4xC-2" value="CloudSim" style="text;html=1;align=center;verticalAlign=middle;resizable=0;points=[];autosize=1;fontSize=37;fontFamily=Tahoma;fillColor=#008CFF;fontColor=#FFFFFF;" parent="8962rQQDY3VNNf6We3Pp-1" vertex="1">
          <mxGeometry x="661" y="140" width="180" height="60" as="geometry" />
        </mxCell>
        <mxCell id="lKQoEcg4JDYgAveYxKwX-1" value="" style="shape=image;verticalLabelPosition=bottom;labelBackgroundColor=default;verticalAlign=top;aspect=fixed;imageAspect=0;image=data:image/png,iVBORw0KGgoAAAANSUhEUgAAAR4AAADPCAIAAACsvim/AAAAAXNSR0IArs4c6QAAAARnQU1BAACxjwv8YQUAAAAJcEhZcwAADsMAAA7DAcdvqGQAALfXSURBVHhe7P33dyRHtiYI9r+wP+yZs2fPipkzva+KTAWkJFlUKah1dc+cOdvT/fq9V4pVLEmyWFRJJlNrAR1AKIhMaK21SmgNJFRAh0AAiIAOjZz9rplFhIeHQLK33lT1I25eeLrbvX7t2jX73MzcLdz/ndGwMNLXPTwwsLJiWV/fWsHfpmVjbXHFujg/N72xsbK2Zl1bW9/Y3tzYWt+y2ze3tze3Njc21hcXTY+Gh4f6+4cHBk0G4/r62trq6uijR4MDA8P9fWPjYyuraxarxbpqWdveWl1fWd1YXVldXd3csqytrm9aVzc2Vje2Vze2aGcT++ur68hmY3VtdW1zYw07MLi+Bun6tm11Y3Ntc2sN241NWISUXIL2+sbaOg63NtZt2N/cIt2tLcvm5iqdu74OFcptw7aJpA3L6vaqdX2N3Ie5ze010CYKvLq5abFtr20hc/JqY3FpEeevwHWr1ao3Ws1L1vWVrdXFbchXNkxmy6Z5YX1ZvwRjq2vLK5a1zaV16xryXcV/q3rb8tr2snljfX573bi+trK6jrLAT8vaitliWe4cX2gbNTwc17dM6NvGF5t01sHZJfPSCvxEUOYMi2XV9ekPMvv6BizL1pVlCv7m5kYwUxAYo4zBiZxBPtH3Yp8FWXowg3zKwfzf7ADnYOM8PWTi92JqGBEZjQctkNoklNF4qDWiOQlmUlJAfa/hEG0fuhvQXkstb/o/GP07vWnRvLS8YoUC6t+ySo1uG6ZWN6zrm6zxUtVtoWlukEMwjza0sbVFOW5vbW3jjwnpGG0WB1s2NHJkjIzQ1slJNN8N64p1Gfub6wQipg7rEMBjK3KB92j0QB0vFcsYu/B1HekoAE6gsgGEHFXMGXiG6FNWpL0J3K5t2MCr6/BvGylMYWsdhdvYtm6sW2BkcwsW4CsFjCqJcE7REUhGXlZoIlJA1sqKacu6vLJmXVq1WNYsZlw81laNVhOuO/BmCQCHw9ZFnGe1rAJolk3T2oYJOFte3QaKAWvkzjJAuSzIYRNx2DAsra2bcebm6pYVcDKvrS8jGlBZX7WiWIAzr7X1VdQWIilvFpx9jYCiEJTIGeQTfS/2WeCHMvKpcZFPOZhlyhE4mHiizCBXDpn45BxsNpgFeFjDwOUN+yyRwMZ3kAhGtfNEtJZNas6WtPJGAa2e7u6RoUe9j6Y7+8cHh3WDQ+O9Q+P9I6ODg48GRgZ6hsd6hsb7hif7hiYGHk31P9L1DY8PPJrsHxkfGtUNjU4NPtINjEz2D09AYXh0ahiHwxO9Q5N60xIyopJQe4WLG1a0XGq9yB4AoSZPe+QwmBo/eUxMReLNhRRYMeiywTowFheCEtQIbOiKIEerRe+6SSAEuujqsYn+DZstWEKfQc17C50yoItUxGKFYLjJc6eeEDikE8kVuIh+FpEiaFmsS9ur6L1WqPNZMRPqVs2bFgMDJ7Rh0rq2vIzubmvTvIFrB10ctrbWVjbQ31FZyX+4QHVA5ULXZ9neWEYB0YVvbiyvr+NaZtym0kCX3KdsGRDRN6PgK+tWMG8QMuaBo9hJ2pYvkTPIJ/pe7LMgO5QmcgbJpFJ+cgdkdnihZIlgrhwy8Qk52GY45nCieuYAY5dvMK58qFw0Et6qqbVQjVEVYpvqgxauw6VlFQ8qGtrGTSMT+sFJw8DkXM/kXK/OMDy10D+90Ds5N6BbAA/qDH2T+uGZxf7Jhf6J+cEpQ79Oj/3eiYWBKWPvhH5g2gSF3unFmt6x3sFH8AtNCn2TZX3Tgr5pbdWyatnYoq4QvSANkajnwRWdWha7BqDRwz/qMTbRqSAZfRx1FHCcysggg8hQlwVNOgtGNrZRdmRlpbElEtEFIQgI4hbSsUPNlkJAnR4PFHpdyp2AjC2SOf7oNOqeuT6NO1nu6xaMbKHHXEVzx0mr6McwuMVpS+QVTsFQDjvblAPBy4KOmApCsKLhLV0LqGooe3TgLEsr+m6yBcCjO8XgGSEC7tnlB1kjhUa+dAFY421CxnCSM2wGJ3IG+UTfi30WZIfSRM5UhvD85A7I7PBCyRLBXDlk4pOw1CBdlSWHMqYGhlra3DAvmVcsuALSeGd5eYWN/zEm2lpcWtLpdJOTOv2CHhW8sKAvKy0tLSu7qc0R0MIVt7AgL6emVb9qa+vq63s0Nm80Ti7oJ+YM80tLkwvGWeNyR9dAdW19U0vr9IJpZnFlxrQ8Obtgsq7PGJYXV7fNG3bzus284RjVzTzsG+pB9zWj7xgcR39FLRODJbhF12/uM5ofRwVjNCzWrdEYjDNdKkiHtUJsWRP1FhnBETFiYfIK6BR2LSF84rJPGEAbZUbEmdTIseFMB6z6iHle/mMGLeYGZUTZMyCSEZZOuWBLECHP2emsC0Ui4ZOJhG9e4/4cccyOcDlAgOiigC07EdBFZ0pMloE/zqwThn3B7BLhZwZ27hoxUvzlIMuwL5hqgjUXKJEXrJg+JpGvCiBiDpOb0KQT+dCDMcvDfyKvR4o/dbsofoCU5ehjuqxL3JO2dUh53HyMOEiZq/EzpWpgLvIyHPDFCkxN0BcBtENf7mB/oVi5WJ36tpSyvLo6MjK0tLzEpXMGQ09vzwpG7BvrC8bFmzdu/uJf/rmjsxOz/ZGhoYrSksqysmvKTAEtVGJBfkF+zUPD8kZnW/edmJTvvrvw3cWLN27G3bgZc/HKjSTl/bPfXj53/rIqNftOrPLylVsff3b2wuWbd+7EffHl+aHJBcOaw7Bm01s3dQbz9Tv3CkqrBqf1HUOTFEiqxk1MIOjCLGFfHGh4ykrlY17xHD/Usn0l57c6iP3h9geJGGciQ+pseGvzGWF2/GeBGQD8ZtE3MMYOLAFHRPxEbpuLhB12W4KzT41rssYomIaZXhEYBbGwdoAtIoBDqZT0JcwtUBNhLNWEA9JW5b8kMZYGmefCLXhZZAQ7vlw4w3NpLRALmxQfmUh6IthXmyx0SPEWI4i9NoVlXiJyhc4k5GHX55vULE/3MeXCrzUi5sI+Y9pwNV+a7xD5SuOzW7k2gKKxR8NL5kWanWxszM3PDQ3202QYE+vNzYnp2eqams1tTOM3RsbGHj5sbe/ouJ2a54PWWk5eQX71w1mLrbymOVGdlVNUe/1u7NXrcUnK1Cs377b0T2QWlMclqeIVqTEJabeux3117npV61BcrOLsd1cHpgyz1u0Z6xa2I3Pm2oc9rX3jQzPG7uEpaosY9LEmyD31MrziTXmNBoZ0daEhLGeJGjGNXwlv2IcxVgE+kUSNMVfBKIpuKLJ9v5SdK2W6gHHj/ETS954Oy+IOCDGqkImYdxBJoQXLvgqnfQbVLSoXlc6XO5hnBPbu+EVgQIafxZkyFZ4gkwA7xNwQYxYcPzMFFlPBASf6IkZEcio1Z4AQ0kCWiAMYIgKtYNr4Sw3zvuyCWRJ2KhTCJtJJhP9pAgwj3rbhZ1nEfFJ+vY1QZB4nbwVRGaXKrCw+hiYPOG0hROVj4EcTA7ptTiYwS8AR5hoQYbwA4OFEq2UFowzz0vLQ4MBAf39CdpkPWqsFBUWFNQ8fmTdGTKuTZuuseWNgen583jRtXtUZV2aXtmYW18fnzVPG1cmFpflF66TROm1emzdbJwwrE8a1qaXN6eXtOcv21NL6/MoW9mlA2D+2bFnByNS6vLKEESoNUv28tGKRMgazIXnRdy5GuPjHzvUR9mX65uXlxeVl8/IKdszLAaIl0rdI2E8+O8iO8fIi9v3nQgpe9nJQpn5GuZbBEmWJlErBaAl/0JTZkZ4lmOnwfb8mK4iEYQ1M5bAI49wJxotgUSjGIcolOEAN7iEbMsjsBIrAPmc4R65KqdRXmzzsXJ97RWaXl1jFCfelRmTsiwxTC6Hp81PqMO1w014OjA9lzax595dXTJROdcdEFEC2j63FtMS8XVpaxHjRvLRoxi6a+6q2zHsbA2AsLCjOK6zoGRkbHJ0YHpsceTQxOD4+NDY2MD41gO3YZP/o6ND42MDo+ODYaO/oWO+jycEx3dDYxODYBLZD48Q4d3BcNzI63j0y0TnQX1hRW1FdVV1dXVNdVYWdqsoAZlSD3rS6prampqaqMgRXV4GrvQxV2gZwZa2E6ZTKKnBtVTXfkSpzL/wsPYA/lVXEIqGqxs+VtdhyI3zHLwpm4bP8UMKs7GwfCvDZyyws3Eliyre6qq66ujbYCJ3o52qcy5zGfhWPrYRrqioC2JsdmSXmfnLmKYLJDU4IJm0DpDjdx0yZdBijlqqklQKuo4IQo0Q+V2mHysj98ZWFp3u3gexTE8zdpv1qSSk4S7z1n0L7vsj4OECZSkR+0n4lSauq0IrJJpUUFugUpFTiH4xxTbQcsl/DjFdX307zDgjRSRaCioq3tx07HtfjHc//8XgHjJ2dHbfH49rxuD1ul91hb2pqtKwsezxupIMf77i5Jmeoud1Om93mcDrra2s3t7Z4BsH0+DG0d6CN/rq1pcXpcglBKIKmw+man1/o6+tzudw4VwiCCCKPxzM/N7u1tYWzsC8EoQgDosb6BhgEQVmkhiL09W0P26BotzugKXOAp/CsF02m9o5Oh8PpdrmQDhJKjJhHFCO328P7LyEIRTgXanCvsa5+a3tbpIYiaCLguIo/bHuISMrckxJEUJ6emh4eHoZm5Pig7ufm5nDZ5T5HMIvRUXNj05PEB6OOlpZWm90Oi0gHCSVG0GG1AfIs6A2Dg4NCEIpwLrKD/qOR0anpGZEainhGTodjWjfpYvUiBEEEByA1mUydnZ3Q3CU+np2J8cnJiQmoycxm1rTxnX+H8WRhUVFxcYnd7mS4ImghE84ILHDlcjmdLrdGqTQaDFR0Co0bWJJBC5oOpwNOJcXFYgrHMwgmHmjYwaggTaXattmFIBQhc2gODAyUFBXiLJwrBEGE4kGzq/0hqhAeR9AEWa2rSbGxMA2bEcINMpkWUXAoEmaCGhnORQrSQVOTE1mZmdhx2B28gEKJEY55XtiOj41O6XRCEIq4GtxLjInBvESkhiKe0fzCQppGDcBEKAtE0Ozu6sJlHtUkc09GcHSgr2/RZIR5p9MZIZhWi1WRkICyORyO4LaLQ5zLndTPz6dqNC5EkqFL5oAoMqvuwYHB8pISIQhF7Gw3rilV5eXdXd0iNRTx2sFEqa25yekk8AtBEHFN1EtOViYsY18IQhGkzY2ND5ub4a+ssfmhhfkkQaukBFcB4BYYQSpUOcGE201no+tIVWsWFvS8OUJN5iW7KKM1IC9AK351dVUIQhFCjcrDlVuTkoLLmEgNRTCLjAhahYXIGC4JQRBBDY2gq70Nk+TgOpaRxWJNjo8nX1ndi9RQZDQYtSoVSo1LBmzKlJECohi5XLqJ8bycHOwTiliUhBIjFBmNB8r4w9VuZnpaCEIRa2YEraTYGEycRWoo4vEBtDJStSg+9oUgiOA5pIBWZXkZNGXuyQhGAS2T0cg9iRAizIEBLQIE64tCxofK4nIBWhlpaRQYhD2oW8CJLGZE6LIiQ4vZJPXKsrKe7h6RGoqgiKwdDnt7SzPAjxOFIIh4fACtB+lpvJELQSiCtKW56WFrM3bCQ2t9g0Gr2OZwcOtcgH0QzwN9FqKRptXq9ei1UJmPEXpZ3lAmTXRwLndSfCRoQRO5wCH0WoAWenYhCEUshHQZQ68FZ3CuEAQRRNDseNi6uUHDGJEahiwWC7pWFAoUIdwgo9GUqlYjax4KmQM4l+eFrW5iIjc7G+XHdYMBKcAsysyyosY3OTk5MzUlBKEIOjCBHBNi7uHaJ1JDEXcAA+Z0rTZyrwWbkHZ2tGNigFMiaIIgHhkaQq+FkEJZVmopIZLJiYn84h2syd3jxQG00rWpiDlCiUqVOYBDCjKJAK2hitJSIQhFcIrnV11Z2d0dqdcCwTIuJa1NjZG7Xx4fXPXQa7F2EakJwYHW5qamhnrEB45IyxIALQwHi4oK7QzTiATLgrC4uUGraNfWt9Y3ttc2baoU9aRuhtYcbGwjBFCCNz5izlCjAifFJwBasCNkXvIds3xoQKhJTsbwiadxufiPEe2jT/AQtEoLCz07VEnBxEsCZcQO0Nra3GT2I4XGarUq4uJ8pRCpochoNAJaKBSHFvSFgBFP4YQBYW5ODhL4JRkklBihJBDx9jel2wVaIBhEhhgQrq/vBq2dHYwm0GvBwwhlgQhZd3V2YlLOjO8yIBwc6F80svH/btBKSUxC78+LBstCwIincNIvzGekplJ8QASOEANCZISdgf6B8ojQIgvs6lWJAWHEXgtqMAjfMCC0223YF4Ig4vHR6SZzs7Jwzq7xQa/V0tRI4Qm8TPihtWpdKwYVFaJdoqm5XZiFY/Tn2LI7ZucMQ2Pzg4/0Q2P6ofGFW3cSmzsHhsb1o+NzW1vwkqIEH9gO7bHyUoGTEuKtgBa724EUFi4oPCZV+keJcGjFalGnJDts2489wD0X0ggNzPdZWyYjuIyVFRYICQOD2JEAA4dQx1wLA2ueEoEwysKAkE6OiCsQ5lqAFs+RtoH6PJ2LMCAEtJhTRELDS1DgBIUp3dSu0CLNx4+TAK2NDZEUiriawWAEtBAuHApBEFHejx/3dnfXVldFUOOEyhoeGlxaNAUXREa4SAFaMAhN2oaPj4AWV4NZTNElhESfCFfSijLxdCgcQQ1O1lRW9fb2iqTwhLFUW0uTy+kUx6EIWYOmp6fQa8lKEUzQbGluRr/lhipzWwgCeq3NrYKCghIMCG121uQx/HNsbGzpphaMK5tj04sDo/q+0fnhKdOtu0lN7UMDY4aR8YXNbdHFobPFRYFuJ3L8Ehh2kuPjVq1WwgQpgShewArhiv5n+PF4VqxWdYoS1xL3DnWpSMWOhwwSzNBP0DiWmRwcGi4pKsVZdDrru2iLfYoGEUqCLTT3oCUEQUR570ErPCFr0F8TWrqxscKCgqKiIgwIt2w2dF0zM9PKFFVRYcWde3GNLV1t3aN3YhX3c4tu3kloah/uGzOi49rYdgAiNqfLYF6f1VsWl61bdqfBtDJnsBrMG7F37q2sWIyLq+aVdQysHQ6n3rgGpM4bl5esWzYHgEQ3+s3L1riYxLn5pcXlDbvT7XB5lq2bs/plg9lqdzjXN7dnTBaDZR0R7+weSE/L2tjYxFloQHTblXDq2rbbsEv1xOtmD1rhi0N570ErPCFr0F8TWvMzM0WFhYDWts0+Oja2YrFgRNjc9LChufvG7bs9PYM9gxPxCnV+cfndGPRaBK3BCUALXZzbtGQdmTDqFqxjk7NLlpXJGQwg9ZPzlrt37pnNy4Oj848mDbZt25bNOTximphZnJxfejS+YFxeBdyAjAXj0s3rt8cm9I/G5oympdWN7dHx2dG5lUeTc/oF08radt+EfmTaZHe4Gps7FcnpFus64gkQLuhNwCc6ybX1dZq7s6CghHvQwqEQBBHlvQet8ISsQX9NaC2Zl4Cs0pIS3cTkhXPnqisqxkaHK6vqmztH7ucXlRSV9fY/KqtuSk3PvH07tqmtr390dnBiYR1zLUDLaBoZm50xri2ubDhdzm2nc3LGaFxaUyTET03PjUybB8bmlpYtG1v2R49M84Zlo2VjdGzObF5xuulB8Jhu9uaNO2ubW4srFoPJZDABogubDrd1dW1xcdFs2Xik0w9N6M3LG7X1D5OVmcsrVrvdYVndGhmbW7ZubG1to2CIL6oEhOIBWnSHkN3G4MULR/RcKy6WhSUgLsFkNNLNd2QB4yyfwAbBkxhxaFFviqFtUCvHISdo7gotrgZKuHcPlw+RGoqgA8cMBkO6VoPJOk4UgiAim56dnu6umqpK3oiFIBQhqkMD/YsmI+xDM4Iyu42RCB98JASMcCIrB5H0NgaLjxxauDQw0c7AbtAis6S6U1Ve0duzC7SgDGg9bG7cFVpwcnpqKvvBfdjGoRCEImRN0GpspNETIyRyCw9qHnKdf2daNOcVlhYVFtu2t7G/ubExMz09rjM0PBxIzy3qHx4fGJl6kFnY/2gmIUndOwg4LIxMGdboNsbO1vb2gn5JN2ManZhbWrFgNImOywBoxScOj0xNLqwMT87P6s02u+vR6CJEI1ML4/PL1vWteZy2YhmZWLh3NxFGNm22Dbtdb1ofmzShWdqcbnR06MXGZwy6+eXRCUNLW7danWWx0tLImXnzo8nF6bnF5ZUVVig/YbDY3dmxsbnJCoyS+kloeFOtq6spCQlQoqGlTFWiDDKZTGkaDQzyWR9ShBIjtAOeCBlqJTc7h7JGw6RrqtwsCInIb3p6ZnZmWiSFIq6GkW5SfNza+oZIDUWUNS1f0D9IT3OzsbGUhJKXYLa7q6u2pgY9frBUShAPDw4ums0h1ZhtIuxbLNaUpCSaFoeMj5cgMur1GWlplDVTw59QYoQDSmXEoSUEoQiaMIj8qisrAS2RGopgFpHE0KaDrVYJyDKYGLRys7NQFJEShmCztaXlYUsLPVpmfvN0/OeHltm4mF9Uml9Y1Nn2sKWpuamxoaWpqbKqLqegMruwMqegtLy6ITe/LL+o8osvv83OLaxvbC6prGuor0dvWFFVW1FZU13blFdYUVZe09jQVFxcVVHV8OVfvrz/IC+3oDwrrzQ3v6S+vik3t6Kiqr6wrCa/uKKhoaka3WJdQ05e6SeffFlVXVdcXFZcUlZeiZTy2rqG0srakpKKyur6/MLS0vK67OwibWrG+fPXa6rrWpob6xuaCgpK6+sbsd/a0uzjluYmXEXStdra6mr4BpZKZVxTVfXtV182gRphJ5JmeVnphfPf4QrFbrY2yZWRC0uBKD8359qVq8gX+0gMdgDp5FhjU3FhUUFerkwawGywAee++fLL2uoauVTKpNlcVFh09dIllm+Qgo+ZTa1anRgf39rcgrqWK0gYmpkZGVUVFVTkiJGsrqo8981Z+IrIUOMJdICCxuPT3FxWXHTx/HloITgsFLLqoxJjC868/+Du7VtSaTAzO83xsbFajUYmkjKrtebGhgaM6psa4F74sjCv8nJybl6/CthELjXyT05MVCuVcIPYW0xw7IMiAS3D4nJhYXFefn5zU0NVeVlVRWVVZWVRYWlaen5qRp4mPScrtyg7u+B+VuEfP/5coVCWlZYVFJUTkipxZSnLyi3MyMzPyyusLK8AYAryiouLyj7948eZ97ORUFxSnp2TX1RQnJONnhHqldk5ueWlJbTesbIyL6/g008+z3yQnZtbWF5eWVFRnZdfnJ2ZnZVbUFpaUVJSnp9XUFZSnpeVp1Kqz317vry0jK0HrWKLIysxZ5AyxjlVlRVKRVJpcTEuZmCZgpRLioq+/POfUVIwTpRJpQwMfPv1V3yNJi35Zcs3/cyWqGIH/qDfQNOBczXImi39DNCEh8wr5JidmZmZkS6TSrkG+ZFmxed//nNpcYlMKmPoZmdlXfj2W/JN5p6Uq6qQuyIp8e7t27SktTJIQcLQ1KqUxQUFu0ayuLDwq8//wsJYVVVRLosPYsvDi/S87Kxvz36NWqJKJLMVAZqsyFADAy3Xr1yWSoMZXuGUO7duKpKSZCIpI3cyXF6enJhQSe5FKgva5P20tMsXzuPqjOYtl0oYAYzFiCsuDsYpRN5igu+m53uhZVwsohuExZu2LXqo5fY4XW7T0urIuHFw3Dgwrp+YNeqXrcOTC7djknsHx9c37LMLKxub2/SkjN0ctzsctFaBznU5HE6H06lISMQ4AV02STEJc9EWKtDAfAyJbFTgtlhWtCrtxuYW3ebzuDxupwO5O538rh82/E6gw+EYHh6Bi/4Bjxhp+8cbnKDe1dGOASHsy8YbnITezs7q6poSM4RQA0IcCCVGmPWlszsEzBdKEXqMqBxMDbIp3aQYEDIdmVkQjpGIUev01DRG3SI1FEGNounxJCckrO86IPR49AZDZnoGK3QgCS1BELM1hDVONogRqaEI8uHBIQwIRQFFsp+QwjLYwVxLqVCEGxDimJJo/LaDASEaLlU9TwnURAqrXdrBgLC8tFQIQhGZxYDZ4wEOIw8IoQk1u9OJASFapixTKVHmYlSfRSVh061wBFd3HxAaFhdLCopKS0vtDjuaO5lEe1paHXw02z9m6BufH9HNGSzrozP6O7FJIxMzU7OmkdHpdUCL2cNEnrxiZWAzD7KgiItftVqQRsxdppXydIY4ZmlWy7KWFjrZcCZTptstUGNnYcssshVDw8PDbKETPf6CCk0YGfEy+AhZd7S28NsYwVIpPfltDJPR9Fe/jaGb1M1MRVqeC+I2E2P+2rcxAK3KSpwSQRMkbmMYDbBPTodXDriNwZqPEDDCiawcRE90G4NZGOgfiLzQicySlZ2q8vInuY2B6/XDpie6jTE1pXuS2xjQpDFpQwP8ZYULdRvDaDKXFBaVlJQC0+ySQaWzrm3OG5ZnDJZ549LcgnGd3kC2rVapBweHZ/XmecPS1rZ953FAEHkNUCaPHyviEyKsfOcENavVCmihoxNJoYhsPn7MocWzEIJQhIjs3XwXgiCivPduvocnZA2im++Zf6Wb7yY5tEgPlYRxiwsXF/SnLhddITyedI16fn4BYza2hBKdSeAaMHJMnL8HLZDQ8BIUOEFhD1pI+YFCi7TZSiL6VRY2j2kBUqpGYzDo0XypVKjFwKCz08T5e9ACCQ0vQYETFPaghZQfHLQIUdDjEaHSYpZGsx1MH9I0Gr1eT8kMWjDKTXAi896z9qAFEhpeggInKOxBCyn/9qFlMC0W0vOjUocDYz38QwXRbTp+P4zu6rno5h4S0cLQa1GcBAVkT+Z5HPegxUhoeAkKnKCwBy2kQCaUGCHx31yvtbQMaJWUlDgdDpTNTffR6YYi3UV3u+l3JnTzHI3Wo1WrjQY9rFCoAs2B6JiL9qDFSGh4CQqcoPADhlYaLPNEoeElJP69QOuvtYbQYDKVFBYDWrbtbYfTBUCZl5bLS4r18wt1NTV2h8NuszU3NVpWLKlqzR608CcEjHg6F+1Bi7bh4/PDg9biYmlhcWlJCQaEM7Ozy0tL9zMy6mtrzabFO7duopk67PaMtNTR4ZE0zV6vtQctOe1Bi2pUoi8ZEC6aSwqKiouLjYumVI2mt7MzKyentKhwfnr63LffTIyNrqysJCUpmhubtGrVHrTwJwSMeDoX7UGLtuHj84ODltFkKi4oKiwu3treXrFYt7a2ViyWsZGR5eWlvKysyfFxi8WCyuju6gK09AsLdHMDjI33OTQnHIJQu27PTmJcrMVqFYIgYnp011FAi72/Lix5aC3S8NBQUX4+X5QUjiDCHLGz7eHG+joOUVqeHpJWrauJsTHwlg4CCyIjo8GYylZj0AQ0nCYVyA1o5WRl0USVvYdEGPcSxcXb+KYmddNTUzw9JJERen5IL0sDtERqGIKqwWBIY+/GiVASiOBlT3cXapMVJYIuyP+jknCqZJAtdEpJpJelwQ1KDGMWqQQtLfBPb6pgRgM0yZo3cXBgoKykhKeHJK4Jqiwr7+nuFqmhiMzu7GBE1kZvdKL3WAlBGEK95LA33onjcOTh78ZoIvvShuHxPKhuFdAyLZoK8+lnxhaLFdDC5RyosFhW2Ut2V63spej4gyQ5KWlifBz79BUQ9iJs9u5wQTgEWdlHbGLv3gEIhSCI+GnYzs3PJ8bGYmrHEkITbMJgZ1cXCkxZBmYqJYhQhOaGepPRSE6EVSRaWNDH3rnDyiEviIx0k5MpSUkoLi4EZFYkC2IeEcHOwEB/eno6BYbZxI5QYoQUetc5fYIEmoO4WAhBKCKL0FxdvXPjBnokkRqGkPX4BDkJfZwnUoOI3n6+vo5rbXFRIdUSfTQkLMFUZ0f7lG5yFQ2CxV0IJIQk8Pz8fNy9eygsM0kkxIzoTGo+VJzJsTFlcjILIqXQJ44khBxIwrTb2tryc3OFIBSxt8aTZlFBQUtLi0gNRTCLIpiXluqqq9BnwL4QhCJIh4aGMHajd8zLqzqAYKamqrqivMLKCg5feFFxkFbh/SrkotlcUlScnZtXWlyEi25udlZONm3zcnJyc7JzsrPRP+ZkPsjNzv7kj39UpyTn5eaAIYJCIDPN7GwMin774YfpqdogBcFkNisLrFGqfv/RR1mZmTIFKedmZeXn5Ny7e/fsl1/CB7BMwccQAX43r13NvJ9BmiE89HNGevpHv/pVdmZmNnzOiuSAWqn80x9+54uDTAr3wCxi2fGxMV988Xk2FS0TAZS5Ch1eajimSExMjI+TSoMYfj3A5je/+mVGelqQ1M+US3Z2SnLyx3/4AyIpyzSQEb2sG1evXjj3DaznsSoOx8g65s5tjVoFhxF/1KlMAUxBzs5O02p//9FvsjKzEPzszAdQDtChJkTxwX6KIumTP/0J8aHWRYkBrsIUqiOXqiML1f3N119JpTKmushCdpnfffvN7Zs3ZVIps2ZABb9+5RLcixAfaOZmZSfGx//5k0/ycnKxL1OQctaDzKuXL12+dJHcfnDfW+NUuTfUWQJapsXFgty8opISgNTB3unENvRGQfyHrg476O/sTpdWrV7Q63HAbsrTMigMNP3socXaUNuy08r3ZYs1QCplNsZDj4tpnlal2tq2yxUkjJ4WXvX19RcXFuFEmTSAoelwdnW0oyBwmIYoMgUJm5dXFAkJNjt73hBRc0FvwFzLRs8i6BkE3A5QYEMBMGSTk5NZWVnb9DsA+EI/v5NqIm4UTISO1shPgaRSGdudTocLkbQnxsXjuiiTShkZOZzuqZnZjNRU+qFAkIKEyc/Ozo7ysjK2VC1SqeHt0OCgid5DyDRDRx6JOxjdKBWKLRtqnsUnUBONhBWclhzo9QtpqWmbNhEf8kGmyfJCIbp7ektLS6RSOVOzdKNGKsvLO7q65VIJwywCvm23t7W22FA1suoLYAytPRMTk1kPHrCfXETQpPiwnwc2Ot0eO5odWxWIjMD3q73Lc6nXKhRzLZhDmSlA/F2xtEMvjcEW56PyDAsLNJ50u/k8BjMHH6GNIR2JcEoRR290EoJQxBrkjtVipfcQsleLhiPywO0ZHhouLihgNRKQqZSYX+6u9ra11VXsiNQwhLkWnIQX5Dab/YcjDC8x10LWsEmThEAHcMgJ7Uo3OYEOBJXicpIaSCgx4kUG4X/dxMS0TicEoQh5cc/4ewhFaiii2vJ49HpDukYDH0RqKCJ/dnZ6u7vqajDXIvtCEIqg61v5zqtVCIIIk4fkxER4EVqTyssKzl/xqaF7LSIlUBNHSIdjEA4NDFZE/FEJmWV5VVdU9HT3iMRQBB3YtNtsmGvRk9vwpYYmkI25Vl5WFnyIoAmCZiv7dSxdzVhxkIgtKGCuVUrPtbwLnYLujfDTPDuP0zR7z7Ui3QHbu0NI2/Dx+QHefN+DViTag5ZICkN70KIalejvQWsPWpFoD1oiNQxBcw9aoWkPWiI1DO1BS6SGIWg+KbTo+1oOh7dVcIixUqLAbJaGzR60aBuoz9O5aA9atA0fnx8ctIymxSJ2h5Df8HUz4v973B4nqov2CFp8oRPO4ZGSmgPxJIiwswctkNDwEhQ4QWEPWkgRGl5C4r81aBmMpmIAq7R022ZD3WBYiO5remZmanqmob7BaDKura61trSMPRrlPyrBOTxSUnMgngQRdvagBRIaXoICJyjsQQspQsNLSPw3By3zUmEBTbY2NjaAqEWzeVI3pVQosjIzkxMTHzY36yZ1yUmJRbm5e9CibaA+T+eiPWjRNnx8fnhzraVlDq2x0dFvv/qqrLi4rrb25tWrGqWytKS0vrZ2YGAgMzu7IC9PrdwbEO5BS0570KIalehL51rGwsLCYvpSiW3JYt3epi8+rq6vT4xPFOXnG42mmdk5KExPT2sYtGCFQsWIm+CEuIBwLgqcFB+/O7R8K98jQ4siuDM0NFRcWMAqJVKZGbTaNjfEOzFFaijinwnnPkfWBLS0KhXUaJ0AZpyBysyAIN3kRA59UJBekccSAjSRCyWxBrQrtEiNjDxOvHdvfT0itFh8+GqMXaEFB9jnFKqYI5FKjcyHBgeWzIvMjUghslgsyQmJ0OGaEeIDaKVr6Qf8PhJKjJAFRNwIoBX5q5AoCbsZsFNVUdHTE+mrkCg0LDudjrbWZkArQkHIAQ+9hxDQQiRl7skIRgW0EPPA+Eh6LaMJyCkqLgKKTIuLJrMZY0Iwo6VF8+IS/kf64qIiMXF0ZIRkS4g5JKTgY2iQmon+j7t3d3pqWioNYuguTk5OpiQmolkESf2MP6i2tLTkZGbR50sCMw1kyr+hrm5udhb7jGQKftbppmLv3IE9o9FIZoMUfIzOPDkxgXJepOMgsyw+jHp7etK0WkQAqkiknQBN8o//9Q8M9PX2BkoDGC6RY6bFmNu3p6dnZFIp4w80ODikSUlB9NlRgIKEKfP6urqi/AK4xo6l0gCGlw9bWlBBOIcUieQ6nHU6XVxMDNU7NR8WJqkCP5sajHlkeAgTDRTLvGiCDAWUarLQcDK3trTiIiWVypnlh1MwmGqob5BLA5jIaDTU11RTjuSPTMHHVFZUYkZqKnwgh+QKfkZRq8oraioryV8TFYdqYolIU1ovoAVBQWEhRjIPtKnx9+4kxccpJIxLe1IcOCYhNvbXv/jFnRvXRToSAzUVcbGJsfcU8fGJsbG/+Kf/GnP7VoBUxqQcA2u//sXPE2Ji5FIpxxGfO3v2z3/6IywjX7mClyGCzW+/+CL+3l3aD68Jvnf71s//6z9CPyEGPkfSvHvzxq9//jOUC/vJSAk0i8j4XLp68cLvP/oo/t49rgPjPN3L5HxCbAwcw3j72sULgVIZM83Y2J//4z8CXUHSAMbI9vqVK3/46DeJMX5nQjJq8+wXX3z+6aeJLKoyqZTh/IVvzt69cYPiE9EmKvrn//xPcBUOB+eORuJrJ7evX/voV7+MJydjkuJRQQHxwblwDztoDxe/++5Pv/+dVCrjxJh7ScguPu4vH//p26+/kkmlDLMoC7Zf/+UzlCWoUgIYkUQl/vG3HykSEnaNzxefffbtl18kxcHhu6hTXvbkhPhLial+aBUVFvIPrmI453DRqnYfsyXA1PXaXe6M9HR0bA62dtvhcjmcAZoYCTrdLloh7vaoU5SW1VWpVM4eGHQtr6zgCsEWTQcpeJnMujxDQ8PlZWVsxX1AplKGP8i9r7cHkxO4LSuIjFesq6rkZDJILJdK2WAyZaSlbTvoXfXYBCnTcwokIjtcv/Py8njEeEqgJi17dzhdKO307NzU1DR30seBmizCLo+SfoW1HiAKZMQHNucX9A8yMmA5QnzAcK27u6e+rp7erR+x1PAH81tcm1mFRrK5tGLRqFRoHiidHQEKNItKoaKhwbjdeoPhfsZ9aFKAPPIio7CwwKrbPUDVXS6Vyhg2qOBuT21tbW9vn0wqZTQzxGfb7ujq7Ni223EoU5AybE7opvLz8rYR/YiRRCkwkmp72GZjLz9DwUXw3Z77vuW5gBamMYCW3Q5Xxcjax5SAP6CLPTI26PV8GAolYqkme/hFDc3jwTV+1boqlQYwGyjDKOZa6uRk9qg6SMfL3KNhzLUKCvm+TMHHkMFsZ1vb+vo6aQYpSHl1dQ3XSO5GZGWTyahVKrkeqolNniUKXoJ0is+14Afzk/4CNSkjtp2c1E3rdAHSQKbM2OwOl/C19XWZVMqwi1Lo9fpUtRo7sC9T8DPzq6e7u7qyEnpom3IFCaO8g/39GOPhFHI6vNmVlZXkxEQ0StJhjSVAgbcT7uQ85lpaUmRxIJJo4jTKi2pkZ2BgoLykRCqVM2wwzeqKCgzh5FIpM3I4HO2tLUABHcgUfMyqBtPgrPv3YZuCKVOQMArQ3NjU3NAoYs6JiR74flSCISv1WsVFgDSXyYifhWLQagz9Aqt0IiH2EhWUERQU8Qmrq6tCEIpYXDyWlRV+G0OkhiKy+Pjx0NBQSaGAlhCEIpjtYj/gF8fhid8h9HocySbmoqkqFXaEapADLJ2KTXcIs+lzCpyE2Et0KrvNAAm/jcHTQxKFm0US+F+P+KUSnj3dIUSrZdUs0oOI9Dw7vd3dmCGwfXImHCF7QAtTmggGObEf8CehPn0+C4GXKC+Wrp+fy0hN4xgECbGEqH7xxz+nEPHTdSCmKaAlksIQ8nLY7W3NTYCWSApF3Ktp+irkA3Jul3I/pk+E0Vch5T+lkXwVEtAqKiotKQayuZwLfMRPQ/PbW+hE20B9ns5FezffaRs+Pj+851p70IpIe9ASSWFoD1pUoxL9PWjtQSsS7UFLpIYhaO5BKzTtQUukhqE9aInUMATNJ1mNsVhUXAxo2Wx2zMlc9JIZegkEiH0b1e1yOuxOJ6aMaGEcWiAeLG6CE0+nOer3hJbd4RBJoQg2oflXh5Z1dU0RH4+WCJsiKQyZTKYnhNbkk0ELTj4JtGAR7vH3EIqkUASD0HxiaLHbGFXVpBb4oRAZ/aCh9df6nIJeTwud2HMtG8oGOM3Pzo4MD62sWDvbOwwGg217e2h4WDcxmZ6aajQYuBUeLG7CR0gR0Ep4cmgp//uClswBng7C/r8KtGL/6tDqqamqIbW/EbR4FJEiNLyExH9r0MKAp6CAnmttbdsMRsPq+vr4xHh9bW3W/fvlZWXrW1vjY6NpaWmLi2YN9Vp70ArQ5+kg7O9Bi7Zh4oOdHx60Fs35BQWFRYXjY+OXvztXWV5uMJpwjlKRVJCX19XRAVampDTU1alVe9CSO8DTQdjfgxZtw8QHOz/AXsucl19QXFyEXmtmesZqXe1qby8vLpnWTZUUFiFlYW4eeJubnmEfAdqDVoA+Twdhfw9atA0TH+z84KBlNIoB4RItPTYtsUXKRqMROyYjreJeXl42GY3mpeWUpKTx0dHlJSQsLy/RfyvLK35eWaG1w+Yl8/JyzN07MzOzAVIJ4zxaIWxeQjGS4uONRpNMQcrIxby09PDhw5yszCWWt0zBx8yppab6uoWFeexAVyaV0tT0zL3bt2GONJeXpJoyHhsbS05M5D6HKDWOKZmor6c7LTWV2SM1FFCqSblyTbO5v6+/v7eXUiQkU4YNRPLerVtzc/MyUQCRxeXhkUfKZMWiGWfI3PMz6ZrNjfUNpcVFi4uo1kilRszbWlt1kxOoUV7jPhEdUBkF4zIRF3NvkdygOkWaT5MxU0fy0tLY6CNVcjJpLCFrbMhbPzED1hWKc9vDh7lZWdDxMeUkIWSE1oqkwvz8xsamwBwDmGkvo7y11VW4SiIXZsBPUk0Y7evrS9NqmI+R4gPlyvKKqsqKRbbknYeC29aWNghoLZrMhYWFBfl5g319HQ9b2QiwU8IdvV1dXe0d3Z1dVy6cr62q7O5o7+7soG2gZndnJ7q7LqR3dX371ZdN9Q1SqYzZue2N9fWXvjvX/rBNJpUyzy4nOyvu3h3KQu6elMmrzLTU1uYmphao2d4h5caGhm+//JIb7OmMYLOztqrq0vnverq7WJFRQJkyxaGzvQ1lLy0suHX9Onejt7Ozk6Ih1USIEEbk3l5WXFxSWIhzJRxgltSQ2NnxzZdfNDeiOH4R05SeSPGpqii/evECE8nckzJlfT89LUWR1NnWFrnUcD4/O7O+tqarvY1VllSZSuHjxrq6785+3UkKIeKDc3l8wNXlZVcvXuxGejvFh2n6S9HJCkLpyDonJ+7unZ7OTh9DKlWGDraoPoyPMu/fl+YYxMyBtofpGjW2VCmBLSFQs72kuIgqsZMankQUgjVKJYYznYBGezs85CXFWfFZJX5oFRQWlpaW2O0OF1sNxQWc0EfzJVJuzw7dITSZ3G4adSBF2glywoCEeOdxclLS6uqqSA0inIhBESxbLFatSmWLOCBERshpaHgY11oMAIIz9RFELpe7u6uTLc+ls4QgFGFAiL6I1NjKUZEaitCppmu1yJp89oQe5lGUdnbQCefl5DCTfIFbgDLU4BMSXR7P9PTM7PS0EIQiWpnGYo5R61rEn0JSZo/pxfQZaam8aoQgiLifPd3dtTXVroiaINgcHhxEN4hioChSZexLyWKxsN8QUHnBIKEnIaghgEaj4X56OgoFokWkgZrIkZiFbmhoqKJM/mJqoceIq8FETXV1b2+fSA1FOBFqmHS0tz2k1wEG/j5VStCESzrdVG52Fq023i0+rc0trc3NvDjMQXIe5B8QAlr5+fnele8iOlLyQStNozEY9DzQSPHZ8hFECDCghWsJhuAiNQxBFdBSp6TYIn5fC7kjI0CruKBAJIUnKONixpfn8noKRwQtzLXEctDgQvuJf7oKkcZ+sCZPwdblcmGulZOdTcEik6E14RgUpqamaOV7eOLnI+aJbHmuSA1FPD6AFv3KmNVUBIImW/legf1gD6UE2eAArXzHKeRMoDISfQRoKZOSWAsLESJ+LtTg2/z8HK7OvC3yRiUnVBk7fXBQ/s53LvcRUpjhnerKyp6eHpEantC2/SvfIxKghakHu1BEIjgAXDU1NbqYIvNRkARa7A4hoOVwOHlxhQojql9EgXVHqexlaVSgIDVOPB2xU+y28p1rYnrGoSVSQxHFGtBin1PgGQtBKEL9YQDzJCvfCVpx8ezSSb/dEKmhiD5dp1YhV8qblV0IGFEiS0FYMDPJxgwYhIPw33OAkN/GEMehiIMEg4gE9gN+kRqKeHwW9Po0Df2oRKSGJ4xsqyoqsMPdDkcwOjgwsMigFazJmw4ntvI9kQMGIpkypXqvxQvzc2n0OQURH5kmiCtjMzgwWF4ihlWchIaEoIaKq6msivw5BU78RyWuJ1j5PqXTZWc+4MM3IQhDLU1AVqP4cAZT5q5Kb74vFhYWEbTo7blEXOAjfhpivbfQibaB+jydi/YWOtE2fHx+cKsx9qAlksLQHrREUhjagxbVqER/D1p70IpEe9ASqWEImnvQCk170BKpYWgPWiI1DEHziaBVQK/4LLY76OujPmIZEWGyiLkltnvQom2gPk/noj1o0TZ8fH540DKZaQlhcdH2tp0+9urxmAz6vp7ura1to96wtbXldrtXVteMBkMqQSvsQic65nHcgxYjoeElKHCCwh60kCI0vITEvxdo/bV+r7VoXqI3fJYUb2/b1tbX0S7HR0dqq6qmpqcvnPt2bGxs22Z7cP9+qkq1By3aBurzdC7agxZtw8fnBwct6rUKaUA4MTF5+9rVhtpai8XS29NTUlzy4S9/3tTUpJvSnf3yi9h797R70GLOCAEjns5Fe9Cibfj4/PB6rcWl/IKC4pKipaXl5saG8bGxvKxMTYpyYlKXkZbW1vpwbm62vbMrNyuLfalkD1oB+jydi/agRdvw8fnBQcvIFjrRgNBmd3k8YHjsoJ/uU0nt2PHs0MtE3R6tRgtoUZzYgjqpORAV1bMDNWQGaEVeQ8jisoPuUZOSYrfvtoZwh95DWFy4C7Qghdtd7W1r6xtoZLAvBIwoUy+DLNa1pLh4eIvCIgOhFIqMRiOghSCwSFAUhYARElhWRLqJiZysbCjxBGyFEiNygCkjsLrJycjQglewgbqIvxezurYuUkMRbKIQC3pDmlYLB5GLEAQRRDDb3dVdXVW1a6ldnp3hwUGT0YiKZy3Hb5YVhJjTisWSnJiEQ2oxtFAuXHwArYW01FRaTcdqHyyUGMEUnc8o5HsIhR4jHJIReg8hLXQSqaGIa9JqjJYWbGV2pAQRstdNTWVnZjqxF14TBKMtTUBWEzUKlJAcF61L8h7CRVr5npebk5+TrU5J1mrU6J18rFamaFXKVLVKrVR99Otfx9y9ixkX0jUqZRp2oOzlVI1aQ8oqjUr14S9+npSYIJUGsgpbjVoVHxv7m1/+UpWSEigNYGSUkZp6+eLFzz75RK1UauBVkI5geKVUfXf265SkJOG/RKrhCmoVFykSE3/1s5+x0qlQOqmmjDES/u2vP4RllEujVMqkZBPpZEFz8/q1j//4R1UKLYiG2ywxSJlp3r5x4+aN63KphGEBjqlTUn71s39RoDhBCn5WKdM1mnt37vz+o4+gr41QFoqP8sK5c19/+QUiKas+GSPOly9cQAWhdFTjQQo+ToiPR3VTGMnhZDSDAAU0IQoFmof23p3bcBLVDU3oy1xFZMCpqCil8tqVK599+gkCJWG/JimrUihEavUXf/ns4oULMmkAMzWU4tuvv+KeyBUkjJZAlfj73+MUsh+k4GeV6uzXX3/zzVmoUStiucDPVK32SnKGgBZ6LZprFRVtbW/zrorw52VcONnlAb3ZDs5ky3NJw3cp8jFScNWx0yuwd5Li463WValUyjiTlF0uX68lU5AyNzs8NFSUL9YQyhR8DI+cLvRa7evUa9FFMUDKLpOCPZ4VizUhJgaFwiFbsOfXlDHvtZxuD799Cv0ABREHIgwI87Jp5TvKBhG7Bks0vYTUyYmJ6ampQGkA41w2gtiJu3tvdX1dJpWx0+WZ19P9W+pXyR25AmdIIO7s6qqsqICiy0VOhmMEcHgAvZaJW2Tkl0ppeWVFkZAIJap5+CwPpjgTZFhYyEhPd7J+G4esaQVooiJ4dgP9/eUlJSIDRoGaj+E9rCCvyrKynu4emTSQ8fcYvnU8fOhdnitTEIyMkblON5X1IJN+A0JOynV8jEbZ0tTU2NAIT2CRnGajFXjlfzE1/agkv6CkuGhra5s+DoCSo5A+ppN2AIOtbTuGHBh4QIF/ggAiqSbzjL7XioEl+g20XalUymgx9Cp9t2dxaQno37Y7ZAoBjEGmZ6enr7+4qJBetx+YaQAzaHW2ta6vrSMuMikCgJEqGDvgZYtVmZhkd9Cie/pys0RTxnq9Ad0mRYa0gszSdwnoSwLYGR8fz87J3bRhWErDBAqRRBPtnt67jy175zsGHlKpjPkFxW53sh+VrMukUoYmanR2bv5+aiq5GCE+TLmnq6u6ogLGiYMUfOxwu9G+DSYTSoFmJg079hns6eMDYPPSklKhwIQZMxm0ARZnqTJ9t4EsuD1z8/OYvdtQ3YxkLQ1mER94BUu9ff1lJaUiF8F+Tc4smK7y8vL2zi6ZSMo4EWpbNltba+u2A+0uUqlBuOplP8ikQEaMD8TNLa2NmGvRtxQcqFNqVywy933QWjIvFebnlxTTG53QJph9P/EIUDYeT7oWcy1a+U6EOmQXGB+RJ4gji29yQtxq+B+VsNPpqmNZWVEnK+hd8+GJ3vrvdg8NDJQU5OMUkRqKmFuebvajEhyyS52fuNRHFos1KS5OVHFEswa9XqtUYocuO8HKdKUiBrFeKwsOO9API0DUd/mJhYxCBNHUJO+1whKzh6zciTH3MGsVqaGIFcG9gGmMRu29KoclaAJaddXVqOjIpUZ1D/b1mRcXyW+q/4C65j0JJ1RiSlIi1Aha1BoDNIlYWbDVL8ynp2phjRoJFU7W2JDkwmUO/w0OoNcqFhkwEipeQmZuJ30apKaiore7W6SGIu45ZlltLU3YygoSQCiCy4VpcG5WJr0mkK6kYQmV2dLU2NLc5Ha6duhqSXaJPZ4Hvi+VmEyL9Om6osLtbRuPGRdw4oZQMpyKcRGgBR3uXZAmJVMWdIcwfi3ybQyMpB7vWLxfKhGCUETK9KWS4aKCApqkR5xcIveu9ocb7KuQIslL7FQ/+b4KyQ+FUijCVB5DcOjAOBuYBCgjnQWD0gGt7Gz6UgmLM5FQYsTjAz38t+ttDBC3nHD37vp6pNsYXM1gMKZr1IBAhLJwzZ7uLvZ7LRxFKjWaFdq3edHEyxJBmf+oBAoUH1KVlVoQFAha9KNS2qeUoNsYPECwQ18qifhVSGhDDU2tCtDa7Q4hLDsc9ie/Q5j94D53UghCEaR0f5DuEMJjXDTZCYwCPqewt4YwAv31br7z3CB9PKXT7d18FxpeQqIPdf9mHhnvQSsS7UFLJIWhPWhRjUr096C1B61ItActkRqGoLkHrdC0By2RGob2oCVSwxA0n2Shk7mwqKiYVr7b0DThhNPlXFlZWVtdM+j1drvd4XDMLSxsbGzKoRUYHRYxEmF2mRQXHxla3AJqRZMMaEVcjQGX3PSKn6LCQnrN3tKibdvu8Tgf063OAAeQu5u9G2Nzk97TIlLD0Kp1VREXh7qBJk4UqaHIZDJpVSp+Y4IKGKrpIG7YeUJoQVm3G7SgRmZ3Hifeow+uitRQxPNiTwi0LvZuDCEIIpY5ezdGZYWsFMGE4g4PDpoZtEARzFos1uQE8W4sqEWIzxNCC9sBQCvibQxSAxG0KnsjrsYAIS+n09nW2owtThSpQcS98n8VMmKIoAlotbDVGDhNquyHlnnRXJCfD2ihiQM/2zab2WxGs+vt6c3PzWltbkJ8S4qLy4uKtGq1yWjAOdwJWd7cGwhQ4KT4J4YW9VqRoAW0OJz24eEhVXLyP/2n//zuu+9W1NbQnVeH3RP4kjNk7nK5ujs7ngRa1u8JLVJjmjJlHHILoKnJiQjQAnE1lEg3+X2gtdtCJ9CCXp+u1TwJtNBrVVdVRlDjxKG1ZDZz+xH0CVqJiaSyW3zokXFaJGhxenJowdKTQ8v3yFikBhFsQgpoZd2/zz0WglCEMrU2Nz9saeZXDamyH1pLpsUieq5VpDcY0rTqzs5Oh9udEBs7bzA2NzbNTE87HY6B/v7B3r5UjcZkENDixE1w4pcceIcS7/piapQB+hYMCJW7fAQIHRT6rcH+gbz8vJlp3f/y0/e7e3vdbruTHtPJoYVW293R/kS91uoahxZ3W6SGItMiDQhhkDcd/AkBI6T76Imh5XkSaMExuMe/ZSxSQxHL6jF6LQ4tkRqKYBOqPfQRoCpZKYIJ7YX1WovMfqQQ0YAwidYQRo4PRNRrhYcWknldQEQDwl2hxYw+ObTaW1ufEFr8p5AgIQhFyBu4QscTCVpmQKuAVmMsL6/U1VRPTIyvWCwapbK5qTk/J2d2ZnpmSpeTlTUxNsahBSvwAIT/uAlOPC5M9kTvfIc+g9Yu73ynJ6xud19f9/Wbyk8//lgRH7u5vu522ujZ4o5HKDFC5mJAuCFe3CcEoYigFR//JNBa5NBiRaNNoDJSmIRoWjcZcUAoCJWxK7RAsPA9oGV4ogEhVAla1QStCJogKBC0zE8MLWadNmHig61Bz3stFiBPQN2BfGrY7jrX4mpo1IBWT88ucy1oMmi1YFCDE0VqEHGb9LI0NiAUqWEIpXjY0sKhJZK8JLmNYVwsYLcxMK2ilTIYgLHlEehvcX2lBJfLTo/IPWlarclohAfUFweFmyWI8KQoFJEn3yCYQK2kqWkNgUgKRWy1hKu7e+Ddt/5y9Mjxn/3zzzq7G9mqGrvLGYBJ7lh/T/fW5ia/lghBKFpfX1cmJUEJ/oJEaigyLy2h4LxotAnVdDjN0ttzc6HFbYKEEiMoIAVbFHxubn5udlYIwhCU4V5yQsJGxLsyZBYdgsH4ICMddYdDIQgi7gCu8fV1teRHxPgg60fDwysry1QM5rYQBNHq2poqJYXM7RYfzCbup6eTNfyFghYb4pFweHi4srxcCMIQd6uupmbX2xhoDGjYPZ0dTxKfaVRidrasFMHk9ngetra0P2zFKSLJSxJoodcqLMrNzcnKyFAqkjClkbIyWaHGVqFITkr67a8/vHfnNvaJk4kDlFNScPXCjlqp/NUvfoEhZYBUwvx0wC825t5vP/xQkZgYpABrpIZ95K5SKP7xHz/aF/2bG9fik+ITkxOSNEpViiIZrCQP/Qybl86dS4iLw+kp5KFEhC1sglnWcO/Dn/+cjFCOKVJNXjTf4Z1bt3/z4YcqZUoKBQdWA8wyJn24euv69Y//+MfkJNpHFlQQKZO3QvPOjZs3r10LkAYyBVOhSElS/Opn/5IQFy+TBrHi1o3rf/jdR3RKUEykDP+//eabs19+KUsPwQrFlYsXY+/d5Q4HSiURSEmJRyR/8YtkkLfgvJheppAhdEi/e+v2b3/zm6SERHVKijKJasFvh06krToZLS3h8sWLf/744wAptrz6vJWIBon0rz7/y/lz3yqpBlNQOsQNPsgYzRKX0fNnz/KmK5NKGZrXLl/++A9/QGXxxhyOUdivv/zy/DffQI3sM8tkPCXlsiJdQIstz6UXU8/Pzc/icjo/vyAhHC/Mz+sXFmbn5hPj4zHpghpSsJVp4mh2do7eZj43jyCOPhoVgiBiZ1NOIyOPEmJip6enhYARrudzszNzc+BZaNJ/szMf/vz8y6c+z9A0zM1Mzc5MLpCnM9CkXCUM3fqaWoxpKQvqGiQMBZEBZT82Onbnxg3anZ1bIKnEDI7EWZDPD/QPJsbG4whu0DFL9BHPhW872to0KhV2SWeWnA8gqKBkiNHcXFdnT2d7R0CmgQQ9qGFz+/qN8fEJkRqSWNbdPT2KxKTZmVl+KGGhRYSj2bmqioq8nBzkh/0IDsDPpvr6keER2GTlk9okQ7QlWkAlxty5gx0ySMI5EWdO3DLTH+jrT0pIQAPRM2UYEDqcmBt6Up5rrG/IzLjvdYzYv8eY+UCMHgZTR9hjTP6AA4h00aBmqsorZig+MnEgzc+3iUpEMwgsSCAh85Li4rLiYiqGIMoe9lVFtQJaRtNicVFxcXGRDQNCN92mlxKNCzG4YuPDdI1m0Whk/TB1nXzHRzyF1jW6dzCMifxiaj5gWxV3CANeF7yz4368Q6s8QZgKeTzOHbert7fns49jHK4tj9sGhgIEtPheujaaHhw4utpaNtasHrcTczTuEidS54xhgdu1vmZVxN2j0RmtKpYtxMSQDSki0WQypqpUdCbZxDw4QBmecEb6tG48l9YQUsRwyNZqS4k7AJl7ZnICEzORHIowKmf3b2h57oZ36hiaPC6wwbCQoVVj6M6cD0PkmKu3u6O2qpwCGHF5LhRGBvqWTAYqMhUclqmMgUxktViUiUksPmLxMVsfKhhVgnQmdOnnZtPpxdTwUKixSEmYrQWHcGhgoKy4SJoX0qXMpwlOl6O6rLS3u3Nnx4GmRxVBA9IA4k5iQEh3CNkPHYQgiEjPQ6/jz8nKoiDy+y1hCGboNkZTI9UnI0piRvw/KjEaAa0isMNBq/19qoLYIbtnsIMWZlhYgA5MUBORaTLrZGBnRxEfH2HlO4jiSMvPLapkxbb8cwqIHPBJIXRgSuW0ORxbfT19X/zpGi2Dd8FJqgAWYLaK38fAk9vV09W5sbHupMXIfHG+hOE15x2PddWanBiPaoRFVhIJU84wKE43mQz307Q02SSiX0j4Nel08hSVDwWdbiIvN4dcJ5w7mVd+TWGQ0fS0bmY6YOV7oCYxs+NJio9d21iXiQIYTcztmjfo72ekO+gXU0GlljCkPT1dtbVs5TvylJBUDYzch4cGFs2LbJYdIBLxIcaFeGfFsoLROf0MnVayUyLs+tjrD/5cRsPc/fQ01BHwxn5U5GLtUTDUXGQTmu6hof7y8lKpHbBUmZokg1Z9bVVPd6fH7cAlgC5w3EcJwV0Q2nZbS1Pk31gQAVo6Xdb9+yihSAlDCEpLU1NzoxdaEn0/tNjL0grQu3FoATZcwInCR4ao9aRp6ZExOf+YPrcBkAolRjiGCIFEzJJ2+wE/2jecW15e0aqU23Y7u9hwhnWn3bbd0zlaXtJVVtpTWtJXWNyXkJD/T//lYmnZYEX5QHnZQFlpf1lZf0lpXxn2iQfBpWUDpaUDcfdyigp7sI+U8oohxsNlFUOl5YNl5YPYwgjU8vI6//LJtbLyodJS2ByBjp/Lh4hpBzzy4EHTN1/dLa8YKSsfLivzirxcWtoPC1CDKE1bdf68opTOQhb9yE6qyczCwgi2aanVaak1PvfkXD5UUTFaWgrRyJ//dLmwqEuuIGUUs2zowYOWb7+OxSkoEfMwtFnEJCG+4PatByXkcygdH5cPpyQVZ2W1olwUSea8l7GPFJ44lJvb/vlnt4pLUSmoBWypFgKYaocC9SCj9puvY0phsIRqECJecYJLKWjl2Jb0JSsKrlxKJoNe5hXqY2gWl/SWlPTcuq5NScxz2O0ANrUf1lWKdsYIjQ1t1e5wopPBpUfWvKXEOowdHf+cAuuyhCAUoZ2zjwA1AYQMHOJmBs6SQot+VPK3XehE59AlA1d6DITs6+srv/x9xsFTsQfPxO07HX/wTPyPTlz40TPnDp1KOHQ67tCZxKhXEg+9mhD1WuKBVxMPvJbE+RD49aSnX7x15NXEfa8nRr2eeOB1xf7Xk7Dd93oSdg6+ocA+JUL/dOxTh88eej35wGuKqNeTD72hkHBy1BsK8EGcghNfvv3U8fM43P+G4vDrlB5FCoKj30h++o2UqNcUB19T7H/hxtPPXXn6DUU0M3JQosYZKU+/mhT1WvJTP7l66ExMFKyRwQAduHTwNXirgGP7X1U8feRbFEqmI2WWl2L/qZgDz1zaz9w48FriQWbWWxY/IwIHf3Lt6Zdu7n816dAriVKRjOHA/mev7j8TD82Db6R47aTQlrtNnHzglcQDZ+KeOnFhPyridPyPUFmn4g8IjgPvPxX3NHH8wZNxB35y9amj554+k3Dg5bh9JyGK33/SzwdOQif+qZMJB07GPXX8HGLutSMYlg/CPrWHhAOvJDz1WuKxV5N+fPT8b3+dbrNt0MRhB2NjgCfEw72/zUKnvwdoec8EtGg+s7m5/us/5ka/ooh+NRl85JWk/T+59uPnLh1+jSo4+vWUI28mH3s95Tja+psp4CNvKcHHwG+nPP3y9RNvUnM/8q7yyNuqw2+pD7+tin5Hc+Qd9VHGx95R0/6biQdOfPPsB5qj76qOvas6+p7Gx8fe0x57XwNm+5rDr8UefP4iNI+8r3nmPfWx99XHP9D4+Jn3NdHva56F6H1N1Jk70SdvHP1A+8z72hPva4++71cjphPVR99TP/u++sDJ68ffTOC5yBiatIUysn5Xte/EuePvBeQo4xPvq058oIl6Pf7Q81fgLU6Eh8wCsc8sMTmvOXzy5oFTt7Fz/B0V1/FpSs0efV8d9dL1I28nn3hPfeIDLRROoIwfoFxcX81Yc+Rd1fG3FQeevwRvj76tPPy2+vjb6mNvq4++rfIxEqPeUqF2Dp+6c+DZ81Fvq46/kXz4DWX0m8qjUn4j5dgbykNvKFG5B1+4dPCFK0eZKWZNjXo88jYxr8Sjb6ZEvas8/GZy1HNfNtTVY7RJuGKzMjRV0cIk9LeCFr125m+/PJdGg/CTArS9vf2bj/MPv5p8+LWUo68Sig6+cONHz11DStSriqhXkJ587NWUY7STcvjVFNpC87WUqFcUT794/ciZpANvqaJfUxx5I/kIVRvVLgHsLSBNxWso+vXEg8+cP/6u5ug7GmyPvAemdk/tjxhNTXvkXR+0LqF5HQZm3tOiDR1/H01NMJpa1PsMSx9oo07fPnTy+hE0RIDhfcKnVJO1SOBN+9wH2v2nbh19MwlZgAN1fExZH39Pu+/Ed/AnSOrnE8yfw68nHnr+Gll7DxjA1ssSTYiggPZ98My94x9oGQ4DFQJYc+ilG0feUfKiwSZw5WPKAs7zi9Fbin0/OY844EIWDSR4MSDiDFzRVgPwELSeu4hD1MhRghBVjY+PvakEtKiO3lQeeOHagZeuYx8c9RaQqT6ELVUiXRbBx99SRr2jOvSO4ne/i+3r7hHjQDYgxACNta8A+ruAFseMlHjK/wnQYqGhsavNZvvdp4XHXqeL2ZE3lEdfT9n//NWnn7l07PSt42fij56+E30miQFPATgdeZUYO0dfVRx5RXHw+atHcbk9nRR96vrhV5KOAGDo99DRgdGVweCbKUdRMa8l7Dv2DSoJF1HavoOeTXX4XTUDGDVr6nbYTvRrsfsJWqnRH6SeQIdGLVLK6mh2LT+GrgPQevnGYdbcqREHqBEDV0c/0DzLoHXsLUCL9RXB/IEWbvAmvv/E+aAcA5h1j1qMfg+9cPXYB/CZOhN4TpeA4BNh+eTdA6fvoWtl+A9S8DK63IMMWtw+TvSJeCcGhmNgQOvp5y/C1aNvaw5jdICthNFfgQEw6mdO3d333KUDtK+k6qC6UPuYowvKR95SYWh94KWb0QxUghlEYfAIDUA0xwHjNxTfXC4rLizr6eqi5uMlNEBqToH0t4GW0UgDQn7z3cPuqDidzpXlZbr3RXcalvh9FYieBFp0o+R7QoveQwhTDFrosji0fvtJAa5hqI/9byVjsHfwhVv7nrn0f/uf/+OPov/wPx7439AvYZIT/UYKUMdhQzvo015R/Pujf/l/PfXB00f+9P94+qdRJ2OArsOvJNPY8hUFdgBIjkOaax35OvrNlEOo4LdUh96k+kNdUs29i5EYwQAjQLSw6NdiCFps4IdRHzBz9IPUYx+kYks772sBLTQsNMFDp++g14p6X/0MDahoAAk1H1Pjg8EPtBxaR99UENKYNWGKsXeHBm9HWa9FfalXGszUytFhUq91BTswiMQjzDJ2fGaJWUd6+NTdg6fv0pDvPZVfFMToew++dP3oO0qCEMviOPJiItphkGYGtRgQ7nvhIiEQlydcm6hXAcaohwFHv606xFCBy1n06bsHfnLpEIZzNEpHwNEpUcw504DiTdZrvaU88OKNQy/dAiB9THVEF0G6Dh57R3XgHdVP/yXbsGCqqCzt6e5Ec2KtLywenhBaaH8ErcxMNOMI1kCQeqFFJFUOmGvRl0qKCtGg0cptTmd3V1deVpbFumowGLQq5dT0NPWybne6ht6NwT2QmQPxFC+0dln5DoIaoKVJUQpogWCZ3s7mstucH31adASXsbdUB95UHX9Tdeil2/teuPbvD/zq//o/HNt//M9HX1cSJND/AH5eRqcU9Vry/hdv/8NTv/q//A8/3nfi7OEzCnA0EAV0YZ+j6xVM3pIPnrz3VNSfMWKMfi0Z1nA6Lpls0I+rJh94aA6zq/LhVzm0gDQxEELbQidGrYoBhjfoZ95XHzp999DJG0Das0yZ8MY0OZMarvGs1zp46jYGhHQuN+LXEfvoDAnG7/JeC7MdoRCC30Puah+0MFGEBdHoZZosu0OnYqJO3z3xvvow0/TnKGMaEN7CRJRmmAxIz3yQCpZaI/SC31Lsf/7iczR+VtMAG6NoDLBxeQK6GMCiWG92DP3M6XsHf3IR0MKgkQNG2r9x/AB1B99W73/p5uGXb3FwcsZ0CziPflt59F015sa49BSWjaClVFWU9vR0swYVif4boAUSglAEZQ4tphgGWov0EaCCstKSudnZlKSEhvp6rVo9MakzmZfKS+mSsLAwR8jyeDRK5RNAi+ZM3wNaymBoOW3bjt98UsjH4tFvKE+8kYJqfvr5K9Enb/w//6f/+szpuKN0+yv58Jspx2gUwVmMHp9+5pv/6cf/6f/+P772oyN/OPxq4pFXFQxUyVHo6FjfBaSBn37x7lNRfzkMKcB2hgCG2doRYOx1MoLxCc2b0SDQRPiAkKGFGi4DDJqUaFisd8L+sxgZnok5dOqmF1rUv/kbIrVXGkxi3IgGevDUXfRaMMUsEPv20ayhgJaNSc5RgtaFXaD1PnoSTfQbSRgQUt/yvgCA1KaENQcJWvfY3Y5I0MJVIOrknSPvqqibJVP+HLlZn/GjbyUjPs/QZJVwBVAdeRcw00a/oyHmcy30VG8rkS96rQPUa6mQiN4MczAAz8fou4A6Bq0b0WxAyBBII8D9b2tOvJ3Ce8UDbyq+OFu5Yt3wuJ1VlSW9PTQgjEzfb0D4BCvfISVoNTcHY8EPLbN5MT+/oKiwYNW62t72cHZutqers6KspLa6emRoMDNNOzs9hV4LTT6VvdEJVoLNgXAI+v+/19rZIWj9mqBFgT6KUd8byoMv3dr3/NWo15OPnIw9hukTRg7Ua6FbYzpsHozpLwaQTx85+w8H/nT0uVv/84GPD79Gc61jbKyIQeAxmo+loMsC0va9FLMv+iv0YzRQPA34UbfG+zfokPIbYnp9+EzMvp9cIoy9x+4ZsHkUsCSghfbEminaVtTp2KhTtw9/kMqhBYXA9kotG1tg5uDpWExReNP0tVSxw5QBJ/QVaN8HTtDNN8JMAEvMwhMBrWuYBXFTHADBTDOoU7GHX4k7QbcBA+0E2EcHq40+de/wOxxamFkxm95riig74yNvJR944coxmqYCWmqMpcEcXWBMXwkPdLtIffiV2IMvXsO4GmpRNL8F5DRREkYvdwxQfFez7+St6JO3eL8HaNEUC2bRZWHQ+K7qf/mX7Pm5RYfdtONxVFdW9O/2oxI0S8xx2lqanwha7KeQtFboSaC1S69loi/wFxcVoYlvbW/T+wpdzkWTaX19DdMtk9GIgSJNu3Z2tOwL/LASbA7E02kNAa3GiDTX8lmwsIVOtlDQ+s0nRYdZHwJcRb+j2v/S9X3PXACcDr+pOIyB3+vJh9kzJT4O5Iz0o28kRb1w7ehrCVFAyGuKw8TojhizWRaY7n+8mrLvxbv7o75AV3bojOLQKUXUKcXBlxMPvpRw6OWEqFNJ0QQ2Bfo06vQwdETWuNCyTox6Hi8Y0NqeodasRlMD6ji0ohm0jrEGygdRnFm7R69Fd+oOnY479nYy7wR8zHsbzmiRNLt7R33wmcvYkdqRMzz5QHv49aRDz1/HDveNW5MzAyGgBT/RK9KdDEnWMiZonbyHyOMagaJJB4S+s/iJx99OiXrx+rNs8Aw1fjuRMfWoAtIYtQJjr8YxaPErFPOTSbnPhFhg8h3NIfRRL99GJNltW5pwQhmd1Yn3VBig/uRdZVl5v9O57XKu73ic1RXlkQeEaGzoGOx2elkaACZrtFKCCDQ1NZUFaAU1bxlBypBFPyqBMtsIkrw9d3GpsKAgPz+vtqqyrKSkrKQU48CK0tLykpLKMowTi7FTVV5WXlb6+Wd/zszIqCovrywvqygrYzt+rigrLSspLsOJZWUf//73+bm5UqmUcS5lUVaWm539l08+KSH75VUV5cxgaUV5WWFhyX/6r5eee/3rZ1/9+vDJb/7fh7/4UfRX/7Dvz4eev/rUsxf3PX9l30+u7MfQ4rmrB567cvAnV9j26r7nrux79vI/RH164IWr//CTC/ueu3rwOYgu73/20oFnL2G7/zm2ZTtPH//mx/t/Drg+dfy7fcfP7z9+ft+x7/YdPfc046eOnUP6U8fPP33i/NPH//L/ifpo//NXnn7hysEXrx566Xr0yzeiXr5xiDF2DmKLC/zJOxiL7jvx1b6Xbx96CaJbB0h6U8pIPHQqNvrlO/ue+ebQC5fp8OWbBwMZiVEnb6OXPnLq3qGX7/74wO9gLQqJ4fglupm277kLTx/+M/qZQ2iUJ+/AAjcO9uf+EuzfwhR0/7MXok7djT51N+ok8goyyPjgyTsHT3x98KWbURhA4hA7XhEsww6YXMX2xStPH/0U9g+8xDMVLJRP3jh0Ets70SfvHnj+wr5jnx88HR996lY09OHVydtRCBfTJ4MvobOKOXDyzlPHvz7wzNcoC2UEt1+C6Hr0cxf3n77zs9/Fl5cUlZeVoA1WlJZcv3Q+PjZO1sACmdoqGvbdWzfQPnEYpODjMjR4jVp99quv0AixH6TgZ7T2Wzdv3rl1C2eVlxJSmOWyqoqKu2l5AlpGgxFdFohWIhtwZJKy3khkMBinZ+dj78UMDAzqDcYFvWEef0iXaBqNpoUFPUzMLuhv3bgxOjYulQayESeDRx49ir17d2Z2zmgy+Rmkn1qYm1lYgKXZ8bHJnKy6b8/FvvX+n/7Lz9Rv/q+KU+/de/aVmGMv34l6/vr+528ceAGVevPgi9ejnr958PmrB06cPfzsTcyDo168fejFm4deuHHwheucaf95Yuzsf+7Cjw/+CvsA6sHnr+37CZjA+fSzl/cBis9cRHdxAPzslf1HP//xwY8OnbiynwB8LeoFtObbgMfhk3cPY8p0JubwmXvRr8RHn47d/5PvDj139vCZ+OhX7h05HRP96r2jr8T6+MgrMYdfiYl6JfHIK3H7nz93+NTNI0g84+MYKDCOPfpq/OEzsUfPxB05E7cv+mNM4byiUHzmDhtoXT94/PMjryYePhN39JV4ZlmuSbm/eu/Qc9/tf/5y1KsJR1+Ngyek6WWpt1Gvxkc/fy4a061XEjCAhD9SzSM499U4WCAjp+8ceA5D69goSo858loc+PCrgo+8Gks7SDkdG/0CAvtl9CtJLDKID0TxUqasX42PQnx+ci7q+fNHyUlm85XYQ6/c/dGZu//rP6YO9A3r53Xzc1P6Bf307ERWVmZ1TV1QA/MzmhnaJJp2eUkpWjjas0xBynqD4WFbe7JCsaCnNi+TShlmi+i9uIUwSL8gMBiQwuGjLqnzQsu4WFJcXFpaurVtozdds/vsfmZE617d/DYGfQSIJ9KOlDEfo2XvZCIpLg7zqACplPFHW7Y8V6HAQJR1xYIgcrvttBqRFke7kfG2Y7u/v78Ys8G1bYNxbXhkrr1zoqJ2+NK1/H/85YOX3k15+kzC/jOJx17BHEkBUB17JeHImxgQJke9rvQxf6Z8hDF2MJv/UdTnUdB5LYkN/DBcpInW4TNgxTHGR0+Dkw89d+Opw19Hn0w8dDIp6uVEDB0PsRsh9Jz6TUzHVZiQRNF0Qrn/VBwuw0c+0NJT4/e1hz9QY9AFPvbTVPDRD1IxzTj4vvrET1OfPnX38FspXDM001RNc+T9lH3HL0W9rznMHliHZIyjoj9QR2Ek/OJ12KeZTKAp7gNPJM1TMfvO3It6X0036NndeS9rj8JJL0d/oD2Ai9fbiiiMyuAA5lTeHGmH3bzh9jEF+vFL147/FMY1x37qz46XGgPgIz/VHv4phnyqQ6/F7Xvp5uEPlFHQxPwQiVyHxwfnkpoGyvtPo3u/zXzW4HQwTWXfVqlS27c21+0O27Z9zWnb8rgc1eXl3d1dAa0riNEk2fLcZmx5ww3J1ODcnindVG5WFnaoJQfp+NjloY8AtTQ2sWdU/A68IOmAcLkwv7C4uHhry/elEj+RJziVQSZNrTbq6Z3vAhyBRBrIg3z3JMbGWi0WIQgmaEDZ44GONiXZJluPTAYgZutWPE63kyZ/w4N9BfkFDqfNQ2umt130OQan077lclpnZ+dzcnp/83HBc68lR59OeuqFK4fPJBx6Peko3Wpnd9vZFOvYK8nHvXzsTHL0S3efPvjxkdOKI6cSj55KYjuKw+CTSdEnkw6CTxEfOpW077nrPz785cGX4g+8nHTg5cRDLyVEvZgY9VIC1IC9Y2wKd/gN1Ym3Ug6hHzt5+9h7yhPvqZ/D9OA9zJfExIMvYqBn0HQvMXXfqVtH36I7hGD2BFbsCMYhZiPvqo+/p9x/4rsjmHf5REGMNgebUa8nRD9/jZ5B8dUYEvb5wKVHXr5Nj4zfV2N2xKdP3klUgNmj76mjX7x9/G3F8Xc17HYi3ckQ1lhZfHz8neT9L16hHZzI7rgwC77JGKEIJ2IHvdmBl66QnQ/Uz8KZn/rVwLTA6n31M5jNvq+JOnnjyMmb5DPdOqJ8cSE4/L7yjf+g/uO5qoTkzrr6ocVFvdO+VF9V3dXVK1pOeLLbbO3NmGvJfmMhJ7ThKZ0u58ED/jkFkRqKoNDa1PSwqRGnuF30yg30CWC0XP873wlahCz6UQkkdB7dThCMJswbO7tDqDLoF0iBQw4k0WSAYS8A8HgU8fHWVWuAVMZkYWdlZYVuY9jsosNixBAFG06BMfr1gefR8EBhQT51ivRzB4fLZfO4NwA6h9PJ3qzvsFgMuXmdL70e/9TRb/b95O6+k4kHX0w48GLCwZcSD6GrwSEBg/FJ2j79k1v//qnfHXgp4cALCQdfjD/4YuIB4oT94Bfin34xYZ/gxB8du/wPhz4/+EIcge1kYtTLCTDIbUafSjp8Jgl4Pvya4hh6whdvHHzx2pF3lMfeVT9LNzxoHSDY17j57cRnP9DuO3X72FsKajq80QeqiZR3VMfeU/FHxt6beCEYMKa2+HrCwecvo6OjO/VkNsAaZ9g8hs4Kc5szMdg58Z7Kb4d5IuXD76qiX7p54u0UghZfoeK93yDBA6Ho2NsErWdZv3TifbYu0YsuuslBSyLhv/YZ9vD9wEu0ZIxDC52SFNt0DwbKbI1I9Mu3jpy8hXJRvnSRopuH8H/fu6qD76kOvZly5H31f/yX+yma1swHeT093fLWJWFqRPQzQmdba4v4UUmQjmDWqnWTk/4flcgUJAw4NDc10rsx6Cz6nQzO5Q34vg9aRuMSfSW8pIRlTBa5BicP5Ujk9i50gpjcZXkLJUZ8/RaSObQi/BSSnGPQou9rJSdjQCggz5gUyLI45B3c8BC94hP7rBh2h8vGfzq14wTMNp3OLafDurhi/c8f5vzo0Fc/euY2EHLoBY4But13+LQi6ozi0BnFQS/ve/H2jw58fPBUAvqlqFOJ+9A7nUraz/gAQUhw1Mmk/c9e/fGRr6Jfjo86nYg+Lep0UvSZ5Cg2JmQ36+lGYtSrSegVDzx/5cDzlw/SugFanxr9rvrou/Rsit+tZoyRFfoKDaB1JPC5lowx3KKh0Xvqp0+cx1a6TkLGaIiwGf06rgtXaZzGMIC8pNYIgVCmEaDmCK3GQK9FjViqIzvlyLuaQ/RkSYkdcV+U3dMjprbOmbI78lby/hcu4npxGFilNbukQ1sMMn9KgKFxHRvpRb0eu//lazQ+pId7lE6o/mkqRshgGhaSqzTI3H/qVvTpm1DgcaMnitih5x/qE+/iyqU5gUH428oj76heff18S3MfW57rbaqsCUkJx06XCwNC9lNIkRhMOBXNd2qKfq/FH89GILT+5qamFrYaA22SsvXeUZR8TsFoBrRKS0poJOpt2SDI6D9mCOSDFvaZ3G+LE9fkgv+WNYRhiGxK3p7LchZEP+2iD+5srW9ulpT2/eznGUdejjv47JVDL8UeRN+CHoY9sKL1u751hq8pOdOU48gXfOp17DUlSRljhzNTTjn+WsqhF24+feJbjCHpkdeZ5COvkJRs8qEmxpavEG6PnlEceO7ygecuRGNeR4+5aRn4Ee+aN3osw5f/0GIC9b6Xbx55I4m1V39vwKBCd+2JBbQ0+06cR/NFgwvHJ9jlP/p1zLVu8Mt8MGJ514QdNNOol+8AWgCGeBLF7m4LkEgYrh568Qb1D2wFMzFbacHvj/PHweIR1luKfc9fwvAVBWRjTnarHTbZ9Iw7Aw+RHv0a6uUaPMHUjkFLzLJO/Ic0MHagjF7uyAepB0/diT59B6ijawe/grCw0AWCxwdxw5XrffWB56/96eNMm22bXdfRxOnHy6LpSAi9SvsTPtfyPjIWqWEImruvITSxXksKLU6QYes7/juBFkgImAjzLv286Ysvio+9nnTo5binTyUcePZK9EvxtPaCnl8lE3hep4fOtMZCwgfPxD199KtoAIAtQQS6jr2u5M+U2YMv9hCMsATA3Pjx0W8Os3kX5lfYHjyt8HEUTckS92NweDJx34mLB098R2B+RYEZ3RFgmK3Ain5TFfUmLeLGzqE36ccv+168Hv1qAv99BI246HpMj6TBvis05i1H3lXtf4aW53KEhGSM9LAlaL1wk7VsnMhW4rNZCt8Rq+Dp4ZI26qXb+0/eZf2qd6kRrZmQMy2rffHGvjeSaU0gX+znEwn2pryRtO8nF9kCC6COngJzBiaJcbp3J/qVe/RwmUbF2mcZ/EQR2ACScIXpH3XCqdGn7h4+dZunczgRzIA93rn9NPXQ+xijYvyp+fHzV8+8EbuxvuFyouPC5ZbQJdqHhP420Fo0LQto0Vfn2JBOQmwoSSlw+e8QWg7HptVi/uaLzKhnbu17Ph6DugPP3DhyOp6WX6BZsEUYYLaElz2Afl2JFg8+dCr2qejPo19LYQhU8CUa0WfYuPF00qHTycTsxsaB567/+OjZ6JcTD5ykKdZBtgNm9zkUhzBzO5mwj82+nj5+4cCx7/gI8whEbIGVF94s69dTooHz15Kffu5K1OnYo+xJt1jz8Rb98oWvZKUO4S3VcXRxAOGxc+hARNcXio9RZ6iJeiX+4HOX0XxpxZ3QZ0v4CDZkkzPZf+HGgZdvH2CLyAB4/nuNYI56UwnNfa8rjrxN7nFNHx96S8OYab6WuO+5C0do0TqB8OBbajDSke9RlkKnwKu3lFGn7+7/yaXDbyvh1QkGaY460RmiF3pHzRZMaQ+dvH34JF0pGHu7Pu8WHP0BrSR85t2UQ8/d/uijdPZdTgz20H7Ra4Vc+f63gdZSkQRabprP+IluS7hdfDj599hruZwO+5bLYa+s7vov/5R28Jk7Pzp2/umX4p5+Ie7Qywm0PBeNmxYxJWPkJvi0AnzoxdtP7ftj9Cl2K+KUAvMxjB6JaWUG65pYd3T4dNLB564/dfTrw6fY8JJgAylbwHE6GYwUQBHTM3Rr6LUOnDhPXRmND5MPotND3yWGlxiFsqEmdYyKp5+7fOjle76RqleBmPefUXRpUEW/rvhx9NfRb6QcpmUoUlb5GL3iwTeVB07d23/s3AGksH7y+Jsq+t0AY+yIfTZSjXr++qGXb8HmMdhHj4p+22sKMPDx4TdToHng9SSA/Ch62jdVx99Sc6bFtRyBDHKHXk3c/+x58uoN1RGGQHTO4CNsARqyPszQeOTNlIMv397/3EUMMtGBnyBNFfAZ9Za/M0S+6EuBzAMvXj/04jVcJtgaQmL6SSsBlbZHqatUHnpNcfz15Lfeud7W2ut0rrvdGBOKlwKJ9iGhvw20jAb6UgnI7qBvCtscjtrqqqmpqZ7urtqqKpvNNvboUVVF+crqWpp0oRO7H8JNcKI0duseU8DkyLcx2Olwx8puYwBaQhCKmK5nZHi4tKiQH/J0RiRjVyx6efXS0lpV1cgXX6g+/kvx7z8rffs/xJ55N+HFt5THXlGg0zj+uvIZH6PxvRL31LFvTryWjNkU5kXPvEn8LOMTb7Kmyfg4WsypGAzon30j5Vk0CGq1JCVGx/KW6lmc+0bKM6+nPIdm+uKtwy/efPb1FFJmp594S+1japcso+NvKKJwVcaAkC/ofltDjBbDmK+KhIUX3lY/80bywWcvHX9LKWY7nL2/veV8/G3Vs2+nnHg1Puq5qyfeSqHfDr8Npl/7Hmf66NbAtPO2+llM/U/ePnr63jNvpjyDrH02OXs7EPCJt1UYOh5/M+W5d9XPvKUiI+9iesbYr89u0ryRTMsXUTT6GRX1PFBA1pyffUf93DsaMKJ39EzMwZdvwPKzzD36rSRbZ8jt4CwmIj7y8q3DL988IbVDxVHB+Im3lK/8x9R3/nfF599VZuX3Z2cV9Ha3+X9iHPRuDBAaCiY7IdcQ8mbkI7SuqSldTuYTLXRqaWpqamzkYzx+Lt8J7LUKCktKSvQL+obaOpN5KT8vb3BwSKfT1dfWwaflFUt5aal5xZKqVhsMepzPOzRuy0e+FIBGER8X4bmW73T0WurkZJv8jU4BxDWHh4ZKCgt5ip8gYvcMqU+l7tbtcLq6utrX1ixul2NWNz0+Ntffq6+pHq2un6hp1NVKuLhi4Iuv4yrrJmqadJX1E7VNOj836uq9XNcwmVvYdeGSurJuDGqV9eN1jZP1Eq4ja5PVDeO1DRP3s5suXNFQXg1ktqpxsqFJ52NSa5ysapisqBvLyG7OyWuva9IRN05CVNsQwDUssax6+POvYksqh4RmKK5uHIPNB9ltFy4py2tH4Q98FkzuTdY1+RlmFaqK2zG5VfXjsE/KjKmkgZpVDRPqtKqCkl7yuX6MSt2k4yzMelOKywfOnksqqx1FfKqaJmub/JpgHCJTMJzMLew8f1FZUz9e3zBR20gszZHi06SrgX7DeIqm4l5MTmD0dIhwfdNUY8Po5PjE/NSc27G9496uLq/o6u4V7SE8oRm3t7Y4nfQAKhzxlgZo0fJcnhSBPPRGJ7GGkJ0IUHHy3yFEr4UBITouvd5YW1U9P7+QEBOTlZGenBDf29vX2tyUpkwpLynZ2LJhQKg36KW5CmNe4okErd3eQwiCJofWduBqDBlxvzEgLC0qwp5I5YRDdssVe9gCYC7ndnd79+raGnpgj9vmttuANie9IN6248GwlhDIeX1tJSU+hm7s03ep6ZNCPmaP2jmjF/YYDQvpaiVOgXUaIHucUiazUHPbkd305HB+Tha8oI7URV8qYhYEs3E15YUrwLRufEY3Ti/38uYF+/yKy9njccACNJNi7m5urIVxj9jlppcZGRbms9O1LucWyiPJFLGj1434GFecns6HtZWl/O1i8MeXIzMrUXY7hvs7Fk1zLFy2x/SWP78DrH9gzntcKyvmlKR49ryRDl0uR0B86GUnvOAuk34+g147BzV6lR3tSHMEw18MQNz2ocGestJi6oaoOREjxC6P0+HyOBwup91GjzKdNqRVlZVheCXaQxhC+wG0Oh7S5xREUhiCJhsQAlq0L1JDEaStLS0YE2KHGqhXGTv+1RjmxaX8/ILi4pItm90J153OqcnJmelp3eTk3Nzcotk8PUX7AEC6VgtooY+gx2OMmE1B3K4TsfV4AC3AhqeHI5xOcy2lKug9hAFEj6B90ArMUUaQOhy2hy0Pac2+0+V2bXvc2xiCoyp2PA4aOfIOjvGK1ZIUH0+LOmg26fRjjjFrlMQwa6APuGjRXtAlsoaLkTADM2MeDZQaNT45PpaXm8teaQmzLjRk1jYE85wRHbS4icnJKd0kxYsTZSXNlj0XdzrtTif9PGd9A5o+ZlXpZ2ij2S7o9ffT7jscdmTLKoaYmw5Qdnu6u7pqamrgpCxHmSZsDg70GYwGXjooSH3gzE9cWV5WpyjR2NkCBh8WBPP4kBG3e35+PjM93YlGhmTCYYAybEEHzQenDAwMlpWW8hBzYu8dxNUKV8lNWgfn3mR+uSvKyrq6e1hJQxNMIydcajvaHjqcDhxGJh19qeQBTqHcwxOKCmg1t7SgtqlhwXt+pXG7/Y+M6blWYVFBQcHE+AR4cmJiGmPBCexMTk3i/wndxPjk+Dj2792+3dnRAZiBAb9pIFCnkzISJyfGMU+7dunS0MAA7IRjaE6Mjw8O9N++fmN0dFQmlbJufHx6aqqmulqjTBH5SqQzuikfT09OjY2OlxQXP3o0DL+nUIJxeD4GHh8f002iCIJ1E2P9/b03rlymz7BMjk9PjE3rUGovT1KRddgy7mhvi7lzG3GYHBubmhij03UTfsYhbOooJi2NjYqkRJwyRS/HxZZEfmbnImhQaGqob2lq9GWBYIB5YDlPjD+anIDPE9cvXRocGAywAw5wYAyFbWtrj71zSzcxygxSFlLLgidQ0omSkqKM9FTswx9fdlxBZrauqrqvpwcdLJoE9P12vMyz6OvtuXXtKnQo5vBNEjrwFNoD8qWoTnZ3tMfevUONiyoF47rRgBwRMWpwY2hIVRWVGpWSEn1FnhibHOPG0UxHdeMwiP3JzIz75aXF06h9P/sbJJgFfBINuCgvdwI1GNhopW0Jmqi45qbGxPhYnY72pZoyRiRzc3Ly8vJ4eWEWzIOZUlAtoEULnQoKAS20zrHRR8gefvgYh+Ojo2AE8/bNm+0PH44jZWyM1AI10YInRkcRNVi/fOFCf29voFTKY1AbGx1ltXJt9NGjIAU/T4yNos4qysvVyQogROaelCGCzaL8PCAWoGK4CssD/f2XL5xH+8Ap8EUmRfX5uKOt/daN69T6qNSjMgdQEBGQ8bGG2trE+Hg0solR8hMXKqkmMQsaRC0NTU119XKpJFPoUMwnJy5/d25ocDBI0888Pm0PH969dXN89FFQpQQwnMRFNCNVOy5S/DlK1cCIXlVZaTeupHQYyWZvdw+upCg1HIYzMqkoMsoyPobZzt3bt1h80MyoqUg1qcoovKNQBrRUKcmEZx+Tjt9boTkxnp6qLS4qktqRMUWSGsaj/Ozs0ZERWfUFMKuahvr6hNgYFp/IkRzPyczMzc5mbZJahc9ycn6VH1rAVSktdHJQ10Y9m59Yn0+EYVl6aipGR9TFoz9niULJS6RGFh4nJyZiriVSg4idSifTTyGVyl1uY8Dizs7Q8FBpcXFQhgEEkxhOdHd2bGxskNsiWZAYWHiJvmWcEI+xHdQwLhGpXhLnMDIajBgQ+sorNLxEp7MBD7zE1SsvN4+yZrdP5areeSMKND09PTs9LVIZsaz8xDVhJSkuFsURSqGINOkjQIb7aWkYmvDTfSSUvARd/uk6OMyz8JHQ8BKE9FVI9uk6aIrUUGSlny8kIwisouR2+Ok8L/3C/P30dGjxQ5kqpTCCbGhoCCM9IWAkZIEEzZqq6t7eXnEcipAXCovBfHtrK1p4YKEDiLnpmZqaBmaC4yMjSB82t7S2NFPDoEbvV5asfDctsc+El9hs9C1jFIMLOPHy4wTAKTXoNoZQ8hJPJGglJKythn2uxUwSYa6lSUnBXEsIQhHUUAnDQ3TzHc6I1FAETbSt7s72kJ+uYxn6CVknxcWhtLAJTZHqJXEOI6PRlKpW+0otNLwkUhlhbJCTnc0aGFsmJlQEMRUiBBkj4pmpKSHwEs+OE0+BewkxMWtr6/wwJHGbCwsGzIRRxUgRJhhxHR8hhT64WlnJfeM6nFiCn9BUhgcHFk309QxOQhBEKyuWlMQkVHoovAj3+D6ghaszGhJPkakijadDjLlWeWkpT/eRcNRLzPBOdUVlT3ekH/BzNVqe20LfMhap4Wl6+om+ZQwp+3RdMz3XYsQTQf47hObFlYKCwtJSttCJVTz3RkpI5NCKcPOdE129PB7+ey2RFET8dJB1dZXuENoCf1QSSFxzaHCopLBAJIUhqFGv1UHQwr5I9ZIsxWpdhZPYCdYE8RhxQq+VqlaFLi0jnwVAKzsri1oOu0KFs4xkTM0wgWTmBYV0GO2VQ0skhSGcubCgT9fQB1dxKCwy4gqC2K0IBq0Ksh2Yo8wBoBTQMpvEZ8Ij0PLyMn0mnH1fM5jgA7eMnYX5uXQtQYunyPSZR6JHG+gfKC8pYSUQxE/xE9mgNECrtyfSbQwQTidoNTfxL5WEIzK3wz8Tzla+y3IMJCgDV5iY8eLQhYERRNI7hAQt9Frb2zbq2XiReaWw28C0wwY8AasxWDo3x4k7QgbYaozdHxmz78fw1RhCEJKgi2oeGiphj4wjEOVO3zJu29zcpCwC3YNcynBPEU/Q4iST8pcicl40mtLZt4xpwCNKLWUeKdqhbxmj1+KHFAr+TRopEyGkBC3dpEwqzRSEnBDMxJiY9XX0WgGaUgZBjUOL91qBJFfu6e4iaDEPpTnKNFHQ4aHBRfYF/mA7UrasrPBei4UHhsVQwMuUKzU+X6/FYgiC21JN6LAU0h8cRK8VAC0kS70FQR+WaiqrMGMXKuGJ91ou9lxLJIUiSKc4tCiHXTRbm+gL/FQY0SoE+XutRdNyERsQUq9FJUT7dDldTj6forvFLAmBi/xGJ26bC/7PWegUTHC1q/0hoCWOwxPNteLjdzUIMpnoW8ZQ40XGnxAw4ulchF4r4reMeW6QPp7S7f4tY9LEXAvQivjpWq5mMBgzUmlCiEMhCCLKm32Bv7a6KoIaJ0AF0Fpi0BJJYQiVCGjBIDRpGz4+9Jnw1Ehf4CfAM9Gu3zIGQQ2mAK1dP7gK+m94WZpIDUPQfKLluVJoEZbcbjsGaRhfOflDGvbL/D1o8YoP1OfpXLQHLdqGj88PHVrIHoQ2yroqWlnAd4Et7R60mDNCwIinc9EetGgbPj4/+F6LxoA0N+OM7gpIA7QcLrdWFek9hHTMRXvQYiQ0vMROJYLCHrSQIjS8hMR/g9AqLKCXY9jtdveOZ2lpOUOrqauu6u3ry8hItzudJqPhzvVrm9s2fhuDFYlYlj0SuAhTwCS28l0IGDG3AwhzPwu7jWHf7eY7DHJoYQeHQhBEpOl2d7a1AlqUQcToWK2rgJZvtipSQ5HJRDffedE4CQEjHIposDuEgBbKRX0+SxNKjLxtjAS6ycnI0IJL0ARUEmNi1tbXRWoogiYM6vUGQCv4DqGUWOY7PV0ELZyCFGEiFEFhiO4QGrlmBGVUIruNIYKArRAwwok+EYNWKr/bQRF6HBhJVtHIDZKB3aCF0rB7So/5HUKRGorgACyje3jY3IhthIJwTfqWcebun1OAo0BWc2OjixcP2l6S3nwHtIpKS0rR2tCMNtY3Z6enSwrylQoAJH5ja6u0MP/Lz/9iXVunbxmzNzrhfApNgEGkUGSQ7nR7EuNiV61WIQhFOBkwEK+doQ+uhiXYRM9J78YoLKQJX2CmUmKaro621o2NDRrGhtcEWayrKJ6LPVSIrGkymlJVapSN8oYuK76PeBxwPnYmJ9gdQkbwBgERSpxYcIgALR0t1xLpoQg6KALcS4iJQeRFaihC5ijBAkEr9Umg1d3VVV1ZSXelIpYa4sG+PpQdO94ihiZUYnJCAiqdEf4LKDVOpBLTVc+zMD+fTl0rJh3skSx9Zs5P0BSpHk9//0BF0HMtKdFzYOZXZXlZT0+kO4QwC4MOp7O1qRHbCAUBIXu+8n3X+MAmuqzmxgZqaZL4YEfyyHhxmb3hs2h2Zq4oP3+grz9VpWxva09PS7t88WJ3Z2d5SfEff/+7Nfq9Fs21YAkmKAjcpJfQnqg1UVbsC/xW+WoMnjcnnoKxhJq/diYCsdXdw0NDxQUFvhNDEvxB7p1tD9lqDHJSCEIRPdeKjeX7kTUX0WspldihggUWGeQLAnamJifysrOFtYjKfCUk3w9HXDfh7t31yM+1WD60hlit5vbhQEji6j1dXTVVlaTodSYcDfX3mRdNvhPDEbv5nghjdEFhDUMIGNEhS8GOQb9wPzUV/uEwpFHoUCtij4zLSkp4Ymjymq0qL+vb7bkWzKK/4o+MRVJ4mga07t8n28x+OIJNQKuVrXz3hYjv+KFlMprZyvfirW07+ofFpeXiwsLu7p61jc35BQP6x+2trYlJndPpStdqF3EZE9CSdYMsBTCgZeQedUpy5DUEHOqAFhqEzRbpRyXwFeEeGXlUVlzCh+nhCAaRe19P98a6eGQsBKHIurqmTEpi1yZyW6SGIvOiOYMWOlE3EqzKDFAapBjj5eXkcgSyS0xg/4aMWJVANDM9MzszIwShiGwQmOkitb4eaaETAoTGqDcYH6Sn79arE/d099TV1LCiBLgnI9gZGRpaWl6CWiSjiKTFqlYq0XIIFexEIWCEQ54CI5hZ3E/P4E7ydfJchxO0KIllNzQ4VBm40ElGsABF6NdWVvX19YnUUESaOzsOu6OrvZ1DSwiCiDs/PTWdn5Oza3yg8LClpaOtjVoFu1AIgXRAaDIuFRaiSyhoqKvHpaK0uLi8tLQE25KSihLsYVtcUlIM0Veff46+kr+uHf11RRnb8TO9LL68rAz8l08/zc/LC5RKuJSdXlqKhvjlZ58hL7mChBFimE1WKK5eugTLMqmM4TOGeQURsvZyQV7+Zx9/TN7y4oTn7Kysrz//nGcdSlnEAaJ0rebcN99QxJhaWaAyBae0FMVBenpqKiauUmlIBv35T38qzC+QpQdzRkbGN199WV4auTjkQEJs7O0bNyrKyrmTYbm0FDOo3Kws7rZcKuG83NzPP/tzGeqUylgiFQlmFsCZ9+9//cUXiE8lDAaZ5c4jPthXpiivXLwolcoZGTELN69eS4iPl0sDGTbRqjG0RhuWiYJZq1FfOHeOqjuiMry9d+t23L17ZdIil1Jet1PzBLTYKz4xEszv7e5ub3vY3taGQWBne3sn3+noANyRiJ2L331XVVnR0d4OsNIWOh0dPsYh1LBta2//9uzZhvp6qTSAmQUo19bUXDz3XUtLi1xBwmS2vT0rMzP23j1uX6bgZ+g9fPggLa2poUEuCuK62rpvv/oKrlLRItjs6Kipqr584QLyJQ5yoKMdKcxCezuCePP6dehgv4ukIeKDROygeWHqKJXKGJpg0DdffdUQsTjcJcD12uXLbQ8fytwLYOZAWqpWkZgINfJTpiBhaGZnPqitruaeRDBbV1f33TdnYZvb7GgLLDWlCAuV5eUADO2zEMlsUrth6djicoZWK5XKmNsEJcbFY+YikwYwy6ittRVDD8QHh3IFH7OsCwryb9+4jl1yRqYgYRRTlaLUqNUi5ox5ieKzSrzQ4jffi4vp3RisE+QCH/HODiOhNK3WaDRgHymUGHSvDITzYSQlKQkzBCEIRdwI3XxXquyRb75D7/Fj9m4M8StjIQgiiDAm6ens4MtzRWoYsq6tY6wFb3lHLlJD0eKimVa+IjLME7AQMEIaJxiZ0k3m5eSQjjdFKDHCIRJpGENvP56amZ4WglDEx0UY6Sni4jB1FKmhiNnEXMuIaQwGZRHKwh3o6cZcq4qci1hq2KSV70tmKknEsKMSlYpkXjUg/C8EjEQsmNRowIAwHbt0HNTSeDqzwG6+l5YKQSiCGoXo8eOaysqenkg336GJgDscDnQVLvYGaSEIImiCpqencrOe4IOr7FfGzc3NfBgsVQ56rlVc7HDQj22DLfICC2ix51ogSgy6zYpEDi202id8rkVfhXREvPnOsge0cJl/Emh1tbcBWhHUOGGupYinH5XI4hJMRhO7Q8iaApRldYNDTpACWrnZYaHFCYkwpZvc5bkW1Di0aA1hZGgxFOr1BowwnxhatPJdpIYh5D40MLDIbmNwEoIgQiXiSsraOS94gKaIBYuGfmEhIy0NlomCoMVPxxYKA+wOoRCEIbLxZNCCJmZZ/N0YskylxDUBrewH97mTQhCKMIHbHVomE+ZahYCW0+kCXGR5U34sCl5oUa9FiYhCyEaGpkOfrvseX4WkT9eFJ5hEOYfZG51k1SYjctLj7n7CXotBSxaUkGQ0mtC1YrbKa15mmdzzthJZrwXiOlKCJuu1doGWOP/xY7Y8d9deyzO/oA/5oxIpQQRl/nutXUtNMUevZX6iXguzMqbCCh6oSam8tfBHxl5o8RgJJUY+NWzpudZu0IImTNXQc60nglZbawv6LhwKQRBxTUAri0ELURWCUMShBaILG86UmA0NLTQfWd7IDJlgA8D4oEWJLApCiRFPRD7fC1rq5F1+rwWbuMyLd74HZSoliNBquzvbN9bpbnUETRA914qLg9KumgQt3mtR+QjnQsCIUlh8YEQ3iV4rm2kJEkqMoMAJpmhA+ATQAlDokXHESJKaZ8cHLZEangCt6soKuCGOwxBsAlpmyU8hhSCILBZrMrv5LihQE0HDuSz58cI8X43BtFiKUGKEQ06Q7jogBEETpqorKnZ/ZMxeO9PWsnuvBZqemsq6n8HhIgShCDZ5rxUJWrQagy90cjrRfOAue3MM3cgG83YDcnt20iO/4pMRtJHVky90Eh9cDU/MKv0U8gmhxRc6YT+CJshqXcU0BubIekRNvtCJa4LggxAw4okgGKHVGBJoyczCAPnEGsSTDAhBOOFJVmMgK74ag/AfMT6gXuq1KiOocUIlMmjRQqfgskhpV2hxggUptEBCw0tQ4PUL0fdZ6LTLagwQbDJo/TUXOiF3AhYGhKw8OFEI5NAqKqafQjJooXUCTpjwYYdhjD77hTSHw5Ua8VvGdMxFe2sIGQkNL7FTiaCwt4YQKULDS0j8b4LWv8Iawqy/4hpCCbQ8Ox6ngz6eB2jxH2vRq+4wWNxb+c4rPlCfp3PRHrRoGz4+P3RooXrQ1sF2h8Nms9EqeLfbZrfbXW60sD1o4U8IGPF0LtqDFm3Dx+eHDi2z2Yw5VVV5RVV5eUFuHmZ+I4MDmpRk69oGJsp70MKfEDDi6Vy0By3aho/PDw5aZtMSfzfG6tqG3qBfXl7OvH8/KSE+ITamr6cHgUuIi4GJbZud38agsSL+mDkpUVE5sQedsjc6CSVGTJPGmysrK+pkBXpEIQhF3CyqubggH/sgIQgiiDCC7XzYGvKNTjLC5Dsx5h5zFpuAJdgyMhoMWqWSBZB0sRECRjyN8+T4GP0egey5kbwTaNarRX86glbEle8sxghR3N3buEiJ1FDErRr0+jS1Cvoy96RErrK359bS8lx5QWQE6dBAP3/tDCt5gLIIIiMr/agkkUrNbMo0cYhU3mBo5btWiz0+0ZDFB6oe9k0cnDI40F9RKtY0cBI6PoIuvZxYLM8ViaGIO4AhWFtLMzoPmXsgkQHHNnsuQs+1mBtcISRB3tLc1MI+p4CwkzbLCGj3L8/l73wvKi4eGx1Ljo8bHx0d6u+PuXP7QVpaXUX52MiIMllRXlRkXV5B5Rn0CxQmqnWyxmwJRga4NvC7i0lxscAkr3XORD5l1mhAFssK+kN6SZtPFMQwiv8HBweLCvLZTzTlCn5mZjvbHq6vr7P8/LkHM9xDYaHPThI/ugnJRqMxVaUSeuK1z34pJ544NUE336GJrh5JdH9VogkDXBGG+MtWA6SBjA3L0A38A1oyaQAzdxYW9FqVkhUnwL0AZiZ7AK3qKn7vV64QyIDWotEgSidVxq6EAS1lYiLs0S1l1D4M+zSZMsuJEufn5vi6FsSHTzRkmtR+HBRheu1MSbEvC5KBApQpL1igH5V0dweIZMx+pWK3OzrYc63gTLl92mMRJ2ixbxkTSTUD2WZ3tDQ1P+SPjJFCukT4zw+tJfNyXl4+oGWzY37lXFvf6OzsNJjNE1NTi+al0bGxOYNxYnISUq1Go6eXgJOvABB8RG/oZyouFRhGFAmJFqsVCPZxoCbhEGQ2L2mVqq1tW4A0kOGrw+nq7x/gv9ei3IN0OMMljC07O9rX1zeomqm4fgdkvLJiUcTH0xiY4hLWJpharVIFH9AcSDNQGUnwysl4YmIiJzsH3TuCgAsb3WMN1ESKw0WMXmtqakoqlTEumGC4lxgTY7WuyqRShv9waXp69n5qGrVY1EKQjpeJ2tvaqirKKT6B7skYhRoeHDSZjKwBU3uUSqWRXF5ZSUlK2mKlpsYpc4AiRuhC7vqFhTRtKholyxlZBDrAmjc8RCn6+vrKy8qkuQRosn6UGobLhWlLR0enTBrAnh2EfXvb/rCledtuD45PQBZu98T4RG5WNr3f3x0hkmS2uam5qaEBgUKrY/FE4dGwd+5LXpa2XJBfUFhYiOoeH5/g760mmqA3WdMhCJtJ3e2bNzva29EmgGykT09NSRlE74LGGTrdlYsXBwcGMGz1c6Ams6hDBG9euzY2NiaVypgcmJqqqqxUpaSwXbmCj6fYO+eBwCH2BSNKlDoQyAMDA1cvXsQlA2fBG6kdGXd2dNy5eXNighxG3EM5QF7hfwQ6MT6BAsbMCh+8jENOUIBmU2ODVCpjUmOaVy5cGBwckkmlDFVs2tra7966BSfJjzBMpNMVFxWlp6ZRRUcsNbKvqqjs6uzEDs8iQEEayf7+a5cvi/igzQRqUp5UEgin2h8+vHPrNq9EHo4ATVYRU6Spq6yo1KhV0lykmkyZCJbStNri4hKZVMq8IsbHxgtyc6n6gkvtzYJbbWpsjI+NIx8jxgctJy87B4MUchlhZyECwVJKofed7ybTUlFhUW5u7sPW1rra2saG+ob6uqaG+vraGmwa6+sbkFJXV1tde/bs2YL8/MaGxsYGpNXBiQBGGk6vb4DC53/+DFedQAU0Ju8+Ox3/SoqLz37xRW1trV8UzA1kEB3m9atX4A9rlEE6jOEVbKoUiorySuzIpDIuLyv//NNP6mrrYLO+LqgsEi4sKDjLlp/DJuIQUBBkSuGBkYamhsYHGRmXL10ia5QIswE+sMBCQMXJzsrKzsqUSmUMI6we6v/yyccVFRUyqZRRQZgJ5+XknDt7FmchCDIFCTdAWZmcfO/OHcQcdR2k4GdknabRFhUVUZFRuoBSB2RRVlr65V/+guKicGgAwRVEpa6rR+YFeXnfkJP1zSxRFnbWqKh+IdFqtDevX5dK5WFnwYSpO7dvoURSkYzJLvKvrU2Kj0crDoqP/5BZrc988ODC+e/q4FukSMJMY2J8fEJsLPYQTFZf5BLaQ8z9Qj+0+LeMbTY7OlmMZLjAR+h8ad6222fCQUyNBIonXp6rTdlteS4bGv3V7xBav8cdQhP9gJeNGYKVkeKLxuQudwgFwUlcSne9QwgLCCYGhJFXvsMg8v5edwifbA3hv9YdQrZLiULDS0jkzQ+iv+4dQth0OZ1/iy/wA1qFRYCW3U4viJYqceKJe9Dag1ZI2oMWPMahEISAVmkJmjgPARf4iCfuQWsPWiFpD1rwGIdCEAytEvRae9AKRXvQEklhaA9a8BiHQhASWvRAjcWBZeEnNAUko9iRocV0vdD6Pqsx/v6hlSqgxdXlpfZFYzdoidMZtHZfjQELHFp/9dUYf1to8SsUUoSGl5D4rwqtv+7Kd2juDi3+oxLMtTi0UPFu9uwPW6fTSZ9/ddNb0HCMi3cEaNExF31PaP3QFjo9IbSgiRP+NRY6/dCgBXL9zdYQBkLLyR5a84euTv7UnD607NyDFm0D9Xk6F+1Bi7bh4/ODhxY6K4cTaMIhcIXRGn/G76CV73u/14rUdPagRdvw8fmhQwuompud6+7qrqupaWpstNlt/X19RQUFG9u2dM1erxWp6exBi7bh4/ODgxZ7xSe90QlVuAhaXkmKj7t6+VKaVpuemrpqtd5P1apTkg306nPqtShOKBVb7sWcEURxYYt0kZoUF7+2Gmm9NjJGO0CtpCqVDnukt+eCYHl4aIi9doZIpIYiglYbQUschydAKyUhHtaCCyIjk8mkVYmV7ziUqZJDXiJo0Q/42Wr0EDbJBv7j0JqOuPIdROPwnZ2k2FjUi0gKSVQEeqMTqolDKwLBK/Zi6qpQ7gUQxdz7wVVUlkgNRRaLJTkxkcrG4xNoGYc+ImhptcADMAESGhJiyUSAVnnEd75zNeizzyn0itQwBE0ftERSGKKqmdLlZD54kkgCWi2AFjRZWRiaiAI+p1CQX1hSWmoymbs6OqZmZu6nZ1w6/12aRpOXk4MuS6NMSddqDeYlfocQRmEoBLS89z8wO0uO+MFVEDRBgJY6OTkytNBwoIkraIn3W8ZCEESQQJN+VLK5CWdEahhi78agd75DM7IyfU5BraJmHkrZhyKk6yYmcrKyaFmnK9TnFKg6SBmau0ILOhQgz07CvXu7fiYcinq9PkOrQehFahiCZnd3V1WF+JaxSA1FcHSov3/RaCTN8DEHcWjBVTQy8pm9sM1HOJefji2DlobUXPTjkaD4PKam46JVxMHfMpaRNz4edG49u0ELerD8sIm+VMKdCUcwqZvSZWZk7BofZN0KaDU0UDlYiHw7ks8pmKjXAtns9CEtl9u9vr4xMT7e2d4+PT09MjzS19Pb091lY+98xyUcZwvziJeUGdESYJdHkUDQCpDKmNZru1ErakWyw+GQSyWM7MBDg0MYlPJ9mYKPcTlE1XR3dmxsbjIkyBWkzD+nQAEkr8PaBLNeS+VCLLkmSCLlhB1IccHLZp8JR4iRSD5INIlZBSB9emoaA0K5VMoskjAQd+/u2vqGXCplZlN8yxihD3QvmLu7uiorKkRpgqQ+hnhocBCDGN5cZFIpc2jRum+ohlFGOCDAdTk9VYt5O+mQ23JNbgAMaNHnFAKlUoYeIWtnp6KsHL2WTBrAdMGlGwf0sjT2Qwe5gpTpIzK6zAf3URxyUSYNZEALzItMbtMJRP5ea3nJUlBA2NJNTo0+Gp0cHwcDWhMT4zq2/l03ScvhJyYn792+3dXZwVJ4OlsX72WkTE7gRChO3rh2FdGRKfh5AtuJsdExdIloOqOjY3IFCdNq9onJqsrKNK1mgrKQ5ytlSMtLikeGaOW7TCTjgYHBO9ev44zxsXHYl0mljGnnvdt3sIv9ibEx5nwgsxT41tRYn5ykoPXY3G2ZGhgyptna2opheoAokKGEsKAObl27NojiBClIGTXV1taWFBdHvzyIWBaolhQVZ2Vm0kL1IKmUYQfTmL7eXuygj5VJpdzf13/rxnUYpCPxn5/JH5YXRLhYx8XcQzL7RUUITeig58d+dVUV5rdSqYxRZJyB4mZm3C8tLZVJZQzL42NjmFCgdcoylTE0GxsaU5KTfT8BCccoaH5ublFBPtoPCijMAkI6XUqBd+W72bwMZOXm5hbk5KWpVOiy0zSqdI0aTRn7qVot5scop1aj+ePvfpcUH4++C4xB833apvpZo0lTq++npmKS9tGvfqVUKAKkAazFJRZGkhMS//jRb1LVyEimIGENpNobV69+9fnnGJGyrIN0BJNj1y5dUqekYJYYUTNVqUj+zS9/ka5NhScykYzRA//ho48ymEEUMEifQgER+N6tW5998gntUyhUuEIHa8IOShEfcy/m9u1AaQBzg4jMb37xC1VKikwayBST+JiYT/7we+Ze2FJDLU2tuXThwrlvznInZQpSRiXeuno1JTEJO/BZJpUyKvqjDz8kNZxFVRngAC8I58S4uI9//zvaV6vJVWpgfk2ciETEDfG5c+PGl599FigN4DS0TwRZqz139uzVS5dlUinzrNGAr1y4AH3syxQkTBV059bNzz79hNpPxPjAzndnv7n83XcIuNBEdadq76enXUt5IKDFB4TsDiHGub7fxrKfprExFZ85oLtHfiaMENi6BN5fSvtHlk5nocdXJqesrq1LpVLmmhi7rFisaNx2h1OmEMBMeWhoGPNaN9uXK3iZbLrduNCuY64VURNsXV1TJinYzzrpTZoyqZQXzUvpqWlQQwTYsDBQgTKiaCAdA0JcoegjbiIlYETBLFAinJydm5+dmZVKg5lFciclMXFtI9KAEPlCc0FvyLx/n56ZBGYqZR6T7u7uurp6UosYH2T9aGRkeXmZRno4MUjBxxbrqjpFiVKzMSHFQSpFRrzUSDcYjRnpGQ6aTfF0pPk1kcqGs6Q8ODhcUV4ulQYz/1FjbXVtT2+vTCRlXmq0se6uTjYglCv4mESoxOmp/Px85olcQcqQt7S0YLDAC86cEWX3DwhlN98xSeACH1EmLGN+G4OmFoxkmnTMRXs33xkJDS9BgROcfJI1hNCE0b3XzoQjqMHUf0/PtaRKnHhc9qDFi4w/IWDE07loD1q0DR+fPWjJjfK47EGLFxl/QsCIp3PRHrRoGz4+e9CSG+Vx2YMWLzL+hIART+eiPWjRNnx8fnDQMhrMgFZxcZHD4UDZ3PSyOjYRpw3dsMcUDSdjMvq9Xkxt9X4mnB62hKpyqP1QobWzBy2kCA0vIfHfXq+1RG8hLC622+mrkC76zjc9ESdsEe3QLR2ku9za79NrIeI4mT1f34MWERQ4QWEPWkgRGl5C4r81aC0tWSsqKjEgZNBy2x343wFIgBw2u9vttjlddictg1ezNYSwQqEKNAeiYy7yQostnQdUCasyZRDU9qAVgUhzD1rhCWp/79BaXl6trqnj0PLseOxOx+DgYG9Pj8lgWFleBjBWVq0zM9Pu7/mlEkTc46FvyG5sbW3ZbEgWel6C2h60IhBp7kErPEHt7x1aJtNSSXFJaWnJ9rYNvdbYxMSl7861tbUXFxXV1NQAWkPDQ8lJiQDe97qNYbVYPG732vp6S3NTqkrlDPqVPtT2oBWBSHMPWuEJan/v0DIvLufnF2CuNTE+oVGmVFVWZj94UFddXVNdA3QZDIbJiYmEuFj0P2laghaaL5WKbcmsl5GCng2EIaAiId6ysowB4aZto6CgoL6+DiNDpk7ETwctLS2lqpQ29GkSO3Jmyv0DAyWFBZSnTCphCJFjd0f75sYGTpG5R4cSslgsKQkJGK7CH1KWagYyIpCmUaNQbHDrYusN/FJkQ8zyA7RysrLYD0dBiAULu5dpVQM9sif9KR29e1gqlTGzt4PLmSI2dm1tTSYNYLrD5J6bQ6ulle9yqYzZj0qqKytREuzLpRKGAi3P9a58D1AOpJWVFWVSIi10oAYgjw8UeKXDjF6vv5+eZmNvdUe62xPgLVvNIKivr7+8tFQqlTEIamhv1eUV3V3dMqmUYRP1gdbb1tpC4zIcB+kIZvU4MTGRdf8+LWuBqkxBwtAEtFqbm2AP3Q/3B3DCNmDle1FRcXFJyeaWzeX2bG7bGuvr9QZDTlb2g4z7fT097a0tt65fW1tdw4CQPqfAAQRiTvsYqahaJCNGCbGxS8smp21takr32Z8/bWtudVCpROjoRDRTQGt5Wa1Q2NibuMMyKXqGBocK8/MoiwiMJuZ2d7a3ra+tBbtHUt7eGVutqwkxMRwGcCZAM5AXDAb6nAKtZ3E7nexOj4RRBZTuorcdjI+P5WbnQIH8YH5LNcEoO8+dvahZJ5NKGQZAMBt7987a2rpMGsBMc2FhQatSYl8ulTJ5Rl8qwdWTF0euIGHoDg70L7Lfa1GI2FoewYGRRCUmJyTAVRZJp8sTYBZlZhvUuFuvpy/wczdYgORhp5IgjX5U0l9aXCyTSpkTqq+KQUsmlTJ3Epfvh630pRKZVM4ul25yEtCimwQRWwVK0dLU1FhXhzDCEwZ2IpT0QXWrgJbRyG++A1rbDrpjQTXqdHvoVoZ7hxofLp+s1aZptbiEkyV+gQnq+nECvMeJSXGA1mJP+6OS3LaOzvbe7j4ksssSriJ8NR0ZsaxY1MnJkb9lTGbd9Jlw+lEJXUfC9tTwCLkTtNbXYR+HQsCIys2I6sTjWVmxJMXGUrtkzgilUIQip2rUbKkYESwIASPk4qPJ8fHsLPpSCVml6LuFEiM4hAigVpDj5AT1WkIQini7R0tIRK8V8Qv88AcVRd98UKtRWTL3pERl39np7u6pqapmF+VIpUYBAC2j0QA1FE1qFvuckA7pMqCVmOigX1oRIVHoMeKaqDcUBwPCdK3WydQoPoEOQI1SidBr9VVGHBAiFzQoNFSMGyN/gR++IyP0V22trfx1gEIQROSAm750kXU/A80VxRaCUIRytmJA2NCISKKaCIrscxlOt8v/OQX0WgUFhbm5eXlZ2VqlEhc/XKS1qhTspKlVqWpVulatTKHE3/36w7i7d5GSplbjkBg7XsaoiZ+CKdmvfvbPyQmJf/n0zh8+vKlRpajVai2ZEppaFVnQKJVJ8fG//dWv1DAusSNjWkKu0Vy9dPHzTz/BKVI7clapMKC9+O1ZVbICTqaqg8xq/KxITPjVv/wzPKHyBmtKOCE25qMPf4lCwTgzK1eAEUrXaG5cu/rJn/6kTkmGJtxmlqVqFFv4jyvU3Zs3b9+4IZXKOE2D04l/8c//hIYrk0qZVotrNPdu3/79b36DfCPFBz4olRfPnfv6iy8QSVn1yRh2rl66kBBzj+oUEZMp8DAytaSE+A9//nMNvEXtBIeI1TVpqlT3bt/6/UdwUkmRZNEI0GQnUsNISbl+5cpfPv0kUBrA0GEFV3/52WeXL1yQSaUMD1kFqc99/ZU6hVq1VBrEytvXr3/8h9/BGdb4ZVI/40L23dmzF775BvvoHrAlf9hy/qvJGQJaJpO5sKAQc63tbTv19d7LM1196Ygu6jZCpZtWvhtNdMFjAxtcXbDjZzY0oo/leHaS4uNWLCv1lT2PBg1uJNAlmK5+PuYZLa1YVMkpGIJKRXL27Ngdzn76vlahyyNG5CGZrh8ud1dHOyYnNOoIkgpmvYd5eSUxLg7DO/JEVpBA1huMiKPDheEHLpO87/UzzkXZ2HZnYmIyOzsHQaSoYeLH/pNokhoNB9yeiUkdei2pVMZQxunQjI+JWbGuyqRSRodiszvnFzAh1MBDZCFT8DF57tnpbO+oKK+griNiqeHnQP8A/RSSjQWour0iHkBiFs/l5RWAHy2EHtmwHwn7NEnZG3aYWNAb0lLTKObkp4dPuXyMikDjYaKd3r6B0pISqVTGXBk2K8owIOyRSaWMeoHals3R2vpw245qlCtIGV5hqP4gg5bny1qsjO1OF93GaGxCgaHLCoR06p8DVr5jrsVvvrMZmnxEwaqPzol8hxCERKhBoIiPW15ZaakfnxzRe9yYZYmZKz+L9hFuF30VUpmU9Dd5xefeHUKRGoZQjz/cO4R/xVd8/mtAC7BpqBlsax4syimoq63lH0HFKbguLZnNtTU1cKursxMDBrvNLs4PRZTdHrTCE1fbg1Zk+jcFLavF0lDzqK93JjE+Pubeve1temqMpu92udD08/PzUpKSZubmMfzde64VkkhzD1rhCWo/UGhZVpYba8dGhhcG+nsb6+tpEMgIg/zl5eWszMyc7GwEBfNRx96AMBSR5h60whPU/juAFv9Ric1mJ28ZsVwE0eSXCXaBFksnVTQIgtZSdXVnV9+E1WrZWGPf7aY387ptW5vm+XnToml1fWN+boHeQ7gHrVBEmv860Np7xWdIIrf+utBaMtMbnQha2zZ6YkfPpeh1bQwLHqfbBURggoR9vhoDViAFSc0RIapeAaC1tGzOqH5w+c63j3IzdAWZM/n3J/IfzBTe702LS//f/7+d6ZqN7U3Mx1KVKpvNJiyEIspuD1rhiavtQSsy/W2gZTQs0iPjIvZ7LUZuN/uKArtZjIkQBor0BM3jSd2l1wqEltE0sfhocu6hY9nkWF93rq851reca5tLhtmZ9qrNJaPdYTcvLyv3bmOEIdLcg1Z4gtrfO7RMxiXgir6vBRi5XBubmzWVlY11tQ11dT09PXa7fbivr6a6Gu018sp3GbRM5iWg0umw2R2bNqeLPRlzuN1O25Ztc8tGizbsdvPSslqp3Nra67VCEGnuQSs8Qe3vHVpG9rK0wqIioMjGfqzV09VZX12dl5NzPy1te3u7qb4uPiZmcdGcqvoe0FpeXnZicAkMOZ30oS56FujC8HIdCHYAaO4Nu8OyvKxOTt7rtUISae5BKzxB7e8eWmwNYWlZ2ejIo+SE+MmJiarSEot1rbWlNSfzwZLZPPpoJCM1dWlpKY31WlQkRswTP1EyhpIYRO48ToqLXVle3mLrFxwuxxYgBWC5XbRSweXacjgx4tx2uI3LFpVCsW2zCxOhiGc3PDxUVJCPyZ9IDUNutxvQ2ojw/QE4xwKxal1VxMfR3m5E73xXqajA9MSdSAgY+aKBHS+06BUISBUagQQpaIp9qUQkhSHSe/w4Mebe+nqkd75ziwa9IV2jQfFFYhiCJocW2WZxCEcoEH1OAdAKUxAf0W8IEhMRAVrgweIgBIxwyMJD6Qxaqdij41CukhLTJGhF/JwCiFutoc8p9Iik8MSgRR9clbknI0inpwAt9jmFyPFx08r3lqZmp5s0hVlspSvfTSZzMX2opNi6urawoDeYzI0NDRiqoZfo7Oyqr6urrigvLSm2rm9oAC09/agERHFkBn3M1tHQ2mH0UIr4eEScguhn/67v9JXlFa1SiY5SaieIaYnwwMAAoCWqTq4gGDLk3tnWBmgxRZlCAFksVjiJrlQcy5X9rDcY0GtR3+uFllTKU4h2diYnxrOzskiPTU3xf6AmZcMUObSmpVIZczVYSIyNQQcrkwYwodgzP08fAWHFCVLwM1FXV2d1ZQUVJdA9GcPm8EC/eXERbQi+MN/lOpyXlldSkpJojRXVKS+lX4pjETWPZ2F+Hvjn83aQPD50It1Ehmigv7+suFgqlTPLB5pVZWX0oxKZNIBJF9XX/rCF300IUpAwfRNjMjvzAZpcZE1IW5qaWhobsYPqRi4McUR+aJlNS8XFBC1MgPjSLDsbvdFyXmokRDQLc3vQwvR6PcWQlmaJ14X6GCloVZha4fTEhIQVi1UqlTJqwM4MAsColW36dbNcx8eItN3p7OntK8jPd1KmcgUfwyyqrbOzY3VtLbImeNliTYyLozmf2w37MqmUAS1MMjGEpd8FwCyF3C9FpkgBozg6HVtDCIvUbe2wxV1+TYoPY5dnZ3xSNzU1LZXKmDnmsTkccffuYQQhk0oZVYpgzszOaVVqB+omSMHHVGtuT0dHR3lZGa9imYKU4e3w4OCiyYRTeHl8ItihIntrH9BSJCY5HK6tbRvOQivzaYJFfFiDWVhYSEtN22br85COAko1WUWQCH89ff24mkulckYTwoDI6SovK+/u7pFLJYyMkPW2zdbe1oZASQsiYxYf99j4eEZ6GvR2jU8jURMqCnMoOI5qpcLu7ASsfM/LywflPMjUKFPY+m61OiVFo0pJpTdrqzUqFVilVH704a9i7t5hS56RQiuItRo/p9LacGUaW2X84S9+kZSYIJXKOF2r0apo5fvvfv2hMjlFJg1glZJWE1++9PmfP4VLGrVKruBjeKVMOff1l8mJiXyxs0xBrNdmnJSQ+Kuf/4x0UJBANRnHxdz7/W9+TSu7aSm0SqbMQgER2bxx7cqnH3+sQugojEpapy9VZkGjJedq9a0b18EB0kBmYSfNX/7LPycnJcqkAayiXwbE3L37x9/9Vo18I8QH3qqUF86dO/v1l/CQfqkgk0oYh5cvnI+PjUF8kAUKKNX0HUIzMSH+17/8Ja2jZ7884Of6mOLDg6ZW37196w+/hZNKdYoCZlFAqSYU0rT0rnwYuXHt2meffsI94RygieET+U/x/Orzzy9fuCCTShkxBCPs33z5Bc6ihfBBOj7GlAf18uc//QGWg+MjZVT6ubNnz3/7LTX7lGQUE1HiLeGKb+X7Ilv5XlRcvLVtx/WbOiU3vdOCb9kOLVXGVTSdzbVwPSb29v0+ctG1aYd+C+fZSYyLt0Rar02DAdDKikWTnGKz22UKAYQrvcs1NDRUmJvL+uiwBCkNCB+2rq2twTjruP2EM5HEGS6iU8VYiwqL0yKaNRiNiBrUMKgg9wKVWQrvuHYmxsdysrLoMs9GCMwHP3k1qesYG2e/Mg5P8BCMC3n83bsYqIvUMASDer0BvRZqL0JJyIGdHfopZEUFrsoy92QEmwP9fSajEVUPt4PNcmvgpeXlpPgEpFDboT4nsNSsS6dS814Lo1YcsxiSXQnxI9J3u/v7+ukjQBEJGSE+FaVl6LVEUhiCpsNhp48Asd9rRaapqals+ikkvIgUH7QuDAgb6htQNPKYFYmV1CP5lfHiUkF+QUlJCTp0LkMUmB4Ch74PHbcb4UClAf1G/QKZhZxFQowuGeGAJJSJRxHi03UkF0wmQI+tFqsmOZktsApLMIlz6A7h7p+uo9ZMdwgjf0aRabI7hHGsoOIH2OHIZDSlqTWkxgADEgJGOKQCs1kvv41BsWG1IjS8xFNIf+exblI3rYt0G4NXFuqX3yEUqaEIBmFYbzCma7W8NQhBEDHNnZ7ubsy1qNjhNUEoxfDgAN0hjHAbAxbY71lTEpNQKvaDErlZOva2Fv38XAb7MAWKJlMDkSaIKQ8ODEb+dB0IujBVXVGx66frYNSFuVYr3cYQSaGI589vY5CH1O4iEf0Uku4QMp9ZcZgByfe1TOzmOz3X2nt7bigymRYBLaghgkw9QJ/SGWFnt5vvPDdIH/M7hEIQhkjzX+fm+9/tGkJOEP1beWS8B62ItActkRSG9qBFNSrR34PWHrQi0R60RGoYguYetELTHrREahjag5ZIDUPQ/GtCK1WjWVhYQPMF0R0Uj7gV5qLHxHRnEETPfnZ2EuPjrVYL3f5gb8Vgt1vYzJnp0IksxWKxapXKLZvN5aaHQHCAHrcIFSJ6UMtuq4wMDxfn58OOuE/CJruwAnXKA/+xQDtd7q72to0N+g0LEuhlDT5X+Y0Bdgh3V62rSfFxdD4ZY8uRvUSZkll6oRJcNtDNNxXssUdxsEP6UIMK7MANh91OQXC7JulladlQ4FaYY6SN/6i9uDGZdvHzxyfoNoa3LKROFrDHD9hdRJzlcLsTYmM3NjfpbB5kkgoi64zgA+olQ0vQwiFFg8SkQ3UKRfbsDudD0tPVVVVVSTIWQ3YKu/lJ+3TPDXkgHUZGhgZN7AVezBLlS06w/GHIm+ZZ4V/gZ3e8KHfmEgS8KlEwiidzcm5uLl1LqzHoNHhFj7bIWzjJjBHhLDjA30PIKxn6VCJoOp3sySJflkCxQP1WV1b2sjuE3AILM6ti71N77EDbZrO1tTbzmiKvmA6uQ6z8VA5ilM/tnprS5Wdl4RQ6HX+cvDq0y/7DprmxsbW5iUKBJNZseKbS9xCy32uVPkmvpaVHxi7XxvrGYH+/blJnMOgfjQwDG+ubG319vZsbGyg8slAkJq6trsL75eWlgb7e5aUlo2kR1Y9gWyyWoaFB+AGz2FfSI2M7TtrY2BgfGzUajYP9ffQTr83NoYEBo8EAI6iAkaGh4oICnI4Tt7e3e3u60SsiUo+Ghxfm5uiZL+qJVRJ77cwq1FDa1VUr3LNYrUODg7CJ1j82+gjXTmRttVgSY2OoDbnptSqT4+Pjo4+QKS7Va+sohXt2bm55xQJNo55WY8Ca3eXa3tqC2uzs7PyCvre3x2azo2GhH1haXrI5HJMTYznZ2bBGbw5zOicmJtDjwfP52Vn4M63TjY2OsscZdh379jZVq9tjNpv7e3vgDy4fVE8ez/TUFH0zlhU8LibGal1lDc6FAHZ1dk5NTQ0PDSC85kVTf1/votEIO3Pz8/dTU6kZuVw2u31kZGRqahqODQ4ObK6vjz561N3dtWa1omp6urqrKipZY3AjkuOjo2ubm3BsanICTsJOf18fXIQbw4MDJgNbIeDxoAbHxsbsNhuGD+jwob9oMiIvBLO7q1ORkEDXAvaYFeOaudmZhfm5R8NDJqNhdGRkexsNxKafn5uYGM9IS4U9lMvpcMzOThuMxrFHI0PDQ8gRdWSzbcP4QH9/c1NzRWkpuxS4URwYhJEl89L4xAR6FViG5wP9A729fUX5BYAWFKGGKp4YHzMaDR3t7YgVqhKHANfc7GxnR3tTQ8PW9jbKZXc4FhbmF+bnl5eX+3p7UcsDff1ra+t2BzUDhDQ3K4vjH17NTE+hTY6PjaGlzUzpEJNtm23Vah0cGKitrmlqbKSqcbpQQEjXN7d0k5MJ2aUcON8PWgajARUAaNXX1hXl52OIODuvt7vcVRUVrS3NcIVdh9yJcXFocwSklZWJsbGyoqLkxISS4iJoImRXLl5gNUuvnVElJ29u09qD1dVVRXw8Yjc8PFRTXWVZX0cLLsjNRjquTyhScWEhGqvRaBoaHGptaamrqVlaWsZlozAnGzCz2+2IGiq7m73RCXgGboHMxHv3Nm12tKeO1hZgeHpmOj+LVojBLJxEzXV0dmHEtWAwVpWX1dfVffvlF3MLBvOy5frlS21tbbguou1q1WoAYGhoeGtrC9VWVlqKlKGREUjRTdXW1CALhBioy87OmZmZnZyaRjuOuXOrvr4e14621tZth/N+mra4sGBjcwPQmpmanpyYHBgYNBhNmRkZvX19S2Zz3N07iB6uF5n30wE8Wtrs9sTHxqKYbQ8fInTLVmtLU8Po+HhBXi6ua3PzC6UlJa1NjYjkgl6frtWgyOalJcvqanJSYlVlVczt29PT07jexd69g35gc2MTVYNeq6a6+tHIiNm8NDk5iWZUXV1lNJl6OtrQ5nBZedjciGIimIN9fUaTEU0NsZqfX0DX1N7Smp35ABWBCDxITzctLubnZN1PS7126RIKCMtou7h4pWs05qXlmoqK4aFhVAfqAoUaGxlBQ8xIT0NNod07HXY0mLKSEsQzMzOzv7fvyqWLaLLLKyuV5eXwqqSoGFDEpRyBrauuXrZYsjIyrl++nJmRPj07i8vNnRs3Rh6NlpaUIt++3p7VtbXFRZNSkYjTszKzBgYH09Sqwvx8u9NNb0BqamxqalxdW+9sb8PVq6+nOzcrc2trG4FFDOtra+ESoJubnVVeVpadlWVZXcc4E4GtKC2prq5JT03LvJ+BzuNBqhpXanQDwCraT1NzM64I5uVlXDwa6uuGhoagfys1lwPn+0BLq+3q6FCnpNRUVbd3duIKfffmDbTIZetqemrqg7TURZMJjQO1gl6rtblFnazAtQ11j+vQ53/+FK4A1nF37/7+o98AhIAByowBIXsVdgZ6DMzQpqdnWpuaFhb0q1THTUAaLgnoqUeGhzLS07/6/PNb1661NDUPDg8X5OXhEtvT3Z2ZnobhPqIAP2EWdTkyPPKn332kVavQaeCCistSW0vL0tKSdXV1oL93YnwciMJYNCkhAZeiX/3sZ709vZOTut6eHo1K9Ztf/mJ0fAKN79e/+Dl7y7SbXvGp1hTm5X3yxz8a9PqBgYH83Ny7t28VF+TTQsSEBNTf8OAQbOrGx5ISEs9/c/byxYu6iQkUGXWcplF3tHesbW3fT0srKSzc3NrExWd2Zqahrv53v/4wJVlx785ttIbhwcE4GvuhVW9nZWbq0KfRN2KcSfEJqPh//i//Gc1oZGQYzXRmbgHOjIw8QvOtq61DlNBjIxSYxqDxoUYAGLUypampqaOjMz8nZ9FoQlcDMDwaGkIT7+7qzsvN/fqLLxLuxeDajetjfl5ec0MjruKoArTmTmCM0UB/X1tryx9+82G6VmswLSYnJ1eXlxfkF+AChF5FERsLB/r7+1Ejl89f6O7u+dW//PPDlua5ufm01FT40PHwIeLf/vChedGMfLFtbGhIT0urKq84/+031pVletl4cTE6nwcP7iPxD7/9CJ0DrgtoD5jtlJeVXz7/3Z0b13HdBQD0BuPnn36C2lEqFGXFxSaTCTkinln37+dkZn34858V5OejolOSkqZnZouLisrLy7LuZ9C1bGt7GO2vrw8XyurKip//138EABC97MwsjFQADDSkjra2mZmZzc2thvp6QKigoOBBRsaffvdbzAWQUl5RlZaqRaVP6nRwbHHRbLGudnd1lVdU1tTUfP3550pFknV1raujc3ZuAfoX4jUcON+r19KgbeHKZzYvoyIHhkYQfVz/Gv9/7ZzZUxtHEIf/8aTiVFLlsstxOXEZkhgMJtjChaWAECCD7nO1uohsg8CAbglxGUkstpMH5+sZjtUS5yl5Y6tDZmd+093T3dPd66IIRwnNaCiEP2gI6Xt/GRmlajE2jcxP9+/j43fbu6ZhppMp1FpVv3nNI99a43xrffj4159b77Zx0sLvcz/eu5dOJLkeD+7e8fsWEUfeojn0er3ZXJ5svSf/rjCJUYr5wvzcXLFYpCGUqyUV/FPWMEhO0Wi0s7e/ubn13TffRCPRXx+N0A/QRk4+GfN5vdx++eu5o6Pc28BqQP6S3ujIxOPHrVYb8FpxjaYLx9MCIZrQnJyYaNSbqbTR6/W9Hk+pVMKyqXicACpvlBc8HsoFem6VN9yzL7mu6+sbfPm9frNeev32+dTTZDxOClz2+ajtHz/JLwRsbW7tbO9EQiGCb7dSIdVxge/evh0KBmFI6Vta9JF6aCwfPXxI1fIvLQ+sD9l0+nB/P5/JLPsWsLaZNtwvZiq7FY5D1aJrRf9mo0lGn5meNjOmf8GXz+fpGhKxGDZHSZo25ldXVpOpFPmr096bdT2nVzcSicOjQ66BkU51ul3yOjzVX89th0OBTncfd3x/69bbUsk7P0+r+XR8DOVf/1GivPiXFn9+JH/R0b+0RP0Ph8L37tx94XIRA8Fg6OGDB8GVVbnDHg+FjuxsWWflzU1Cxf1ydvq36XmPOxaLk1CCgdV4JMLd5razkWJCn7a9vUM9JOeiADfnld+PH4v5fDQU5p4z9s7JL5GTYg6OjvOFwrdff0U8kPU2NsoUz1g4hGUyqcT+wUEsGiEFoySqcm+ptIQcDt3f67pdLi5GubyJDaPhCCkVWbRFJPXJsXEyC7Way59KJgMrK+lkulBc+0HOOJOIx1OJRKfd6Z30Ho+MUE5cz55fVa1258A756U0Hx6fnA4GFkXdOqOh1MSborPBqYVpqpUqqxji6PBYpVh5qI9g6FbBq7RrTY6N7XW7Mtnr0Xj0epQri6SokQxgyIAE4JqaAsNGJrmNlHUiCVZAiHiKLzCI1mLR65V5YX9G/WHAFjXDxLm2qGQkk9gRH/dFsQFM4E9XDVKLgCdIitjT8XEGMn16yjRIBsgVYiAnE1M0anzGTMMKJHWf/KRXmZGfg1N0BgkRxHNu94BjyvlEGQB8PIAEixffH7+XTZa1/uYtxVOPRQc4WBa3nYFsOTlBSQZMUvmp7XCAI3jgGBMAYyaJFX38Wq324tkzTs0u3uEDgEaOVwjR4h3lRJIC8aEObfEfGOYBs8Sk2IizKORaoUA/Rp7CxHAQ+3AKJYJOHhxYdAYzNfEEvIjgO+T9iTju6Fj82OvToDIDGCRHnp2ZQT+RbZ2JJxCPgH6fjYiW4WDAbooMlRyYAp7BDgW0BRjwE6X0Rs5C56K0xpU95Xr4nLAL4wi+32cer9F/slfz4RUl5SSKP0qAhIgK8imlXlmjr5RUWnK2C7maaIa5hNwrUVmFDQyBccxpf+z8arXaXZ/X92r5FVWlaGaLuZydcpkMHyp8ENMv0Zlk0kYhmy/ITF4m7URNyeboGPNmlpyaNTJkF7V0iWSgScbAchkzGgzxCvJLpKUbyVQsHFFy7XyGSCMpJuis9zoAdsqZZjgQAK92OVftxIli4ahoa5p40aFAUcmVdj+Xo9iSR4lIkMLZzNqRaiMmxXpZ0zBoQoZXHaS2Y/NAIOfkM0T61KJkKKzlOgBariZYpeKJdDzB/HW26HZJKIkl86Z5YcYhttq8msj3tIgXGLGnnQ+EcXRsEDwEBluUuS6j6Io4BRxYMlNp6TKGV+0EB3FHNstZSKaO1WEShiBpVhGN0EvN5dWOJHpNE9dQ5DHO9YPY8bRjuBvi+HYAdPXPGJ3u4aLXV3pT3tqpVmrNeqPVsFGtRkVt1+pNlhjWmu0K47oMeLUjG2qmWhOCCVStt2RjlbzP4Dq1QVaqdQUbpgasrmi3UodJvdmGWK032pqGttRbwk1EN8GzyqsDcLlRVlEPVdnF0jVWQ8gaAJlhvlp18oQQeimLblsdClu1RWcbH7WKRJbEOHrmi4RcwbdgIgoMr9rZQmC0LNl17dR2qjc6eAQltVUdq2KHCxJ3i3HkaHIcB9JJ2uNtokVebXx4lXkFA8PPc2+i6rXA0ABIS/83UhpiIr48sadzdZgqmLGGxHOPO9Szk1ZVqSFxq8PjnP4hnBRDmZclHZ902RMLofOrpf9389w8N89/+9xcrZvn5vkfns+f/wZhf94UOy4yGgAAAABJRU5ErkJggg==;" parent="8962rQQDY3VNNf6We3Pp-1" vertex="1">
          <mxGeometry x="469" y="251" width="357.15" height="258.5" as="geometry" />
        </mxCell>
        <mxCell id="lKQoEcg4JDYgAveYxKwX-3" value="Analysis Inputs" style="shape=table;startSize=24;container=1;collapsible=0;childLayout=tableLayout;fixedRows=1;rowLines=0;fontStyle=1;strokeColor=default;fontSize=16;" parent="8962rQQDY3VNNf6We3Pp-1" vertex="1">
          <mxGeometry x="51" y="226.5" width="399" height="289.5" as="geometry" />
        </mxCell>
        <mxCell id="lKQoEcg4JDYgAveYxKwX-10" value="" style="shape=tableRow;horizontal=0;startSize=0;swimlaneHead=0;swimlaneBody=0;top=0;left=0;bottom=0;right=0;collapsible=0;dropTarget=0;fillColor=none;points=[[0,0.5],[1,0.5]];portConstraint=eastwest;strokeColor=inherit;fontSize=16;align=left;" parent="lKQoEcg4JDYgAveYxKwX-3" vertex="1">
          <mxGeometry y="24" width="399" height="30" as="geometry" />
        </mxCell>
        <mxCell id="lKQoEcg4JDYgAveYxKwX-11" value="" style="shape=partialRectangle;html=1;whiteSpace=wrap;connectable=0;fillColor=none;top=0;left=0;bottom=0;right=0;overflow=hidden;strokeColor=inherit;fontSize=16;align=left;" parent="lKQoEcg4JDYgAveYxKwX-10" vertex="1">
          <mxGeometry width="173" height="30" as="geometry">
            <mxRectangle width="173" height="30" as="alternateBounds" />
          </mxGeometry>
        </mxCell>
        <mxCell id="lKQoEcg4JDYgAveYxKwX-12" value="" style="shape=partialRectangle;html=1;whiteSpace=wrap;connectable=0;fillColor=none;top=0;left=0;bottom=0;right=0;align=left;spacingLeft=6;overflow=hidden;strokeColor=inherit;fontSize=16;" parent="lKQoEcg4JDYgAveYxKwX-10" vertex="1">
          <mxGeometry x="173" width="226" height="30" as="geometry">
            <mxRectangle width="226" height="30" as="alternateBounds" />
          </mxGeometry>
        </mxCell>
        <mxCell id="lKQoEcg4JDYgAveYxKwX-13" value="" style="shape=tableRow;horizontal=0;startSize=0;swimlaneHead=0;swimlaneBody=0;top=0;left=0;bottom=0;right=0;collapsible=0;dropTarget=0;fillColor=none;points=[[0,0.5],[1,0.5]];portConstraint=eastwest;strokeColor=inherit;fontSize=16;" parent="8962rQQDY3VNNf6We3Pp-1" vertex="1">
          <mxGeometry x="60" y="350" width="409" height="30" as="geometry" />
        </mxCell>
        <mxCell id="lKQoEcg4JDYgAveYxKwX-16" value="" style="shape=tableRow;horizontal=0;startSize=0;swimlaneHead=0;swimlaneBody=0;top=0;left=0;bottom=0;right=0;collapsible=0;dropTarget=0;fillColor=none;points=[[0,0.5],[1,0.5]];portConstraint=eastwest;strokeColor=inherit;fontSize=16;" parent="8962rQQDY3VNNf6We3Pp-1" vertex="1">
          <mxGeometry x="50.5" y="390" width="409" height="30" as="geometry" />
        </mxCell>
        <mxCell id="lKQoEcg4JDYgAveYxKwX-14" value="Reference Length" style="shape=partialRectangle;html=1;whiteSpace=wrap;connectable=0;fillColor=none;top=0;left=0;bottom=0;right=0;overflow=hidden;strokeColor=inherit;fontSize=16;align=left;" parent="8962rQQDY3VNNf6We3Pp-1" vertex="1">
          <mxGeometry x="53" y="251" width="156" height="30" as="geometry">
            <mxRectangle width="156" height="30" as="alternateBounds" />
          </mxGeometry>
        </mxCell>
        <mxCell id="lKQoEcg4JDYgAveYxKwX-43" value="150" style="connectable=0;recursiveResize=0;strokeColor=#100f0f;fillColor=#f5f5f5;whiteSpace=wrap;html=1;strokeWidth=2;fontColor=#333333;" parent="8962rQQDY3VNNf6We3Pp-1" vertex="1">
          <mxGeometry x="208" y="251" width="93" height="31" as="geometry">
            <mxRectangle width="93" height="31" as="alternateBounds" />
          </mxGeometry>
        </mxCell>
        <mxCell id="lKQoEcg4JDYgAveYxKwX-44" value="m" style="shape=partialRectangle;html=1;whiteSpace=wrap;connectable=0;fillColor=none;top=0;left=0;bottom=0;right=0;overflow=hidden;strokeColor=inherit;fontSize=16;align=left;" parent="8962rQQDY3VNNf6We3Pp-1" vertex="1">
          <mxGeometry x="302" y="253.5" width="32" height="28.5" as="geometry">
            <mxRectangle width="156" height="30" as="alternateBounds" />
          </mxGeometry>
        </mxCell>
        <mxCell id="lKQoEcg4JDYgAveYxKwX-45" value="20000" style="connectable=0;recursiveResize=0;strokeColor=#100f0f;fillColor=#f5f5f5;whiteSpace=wrap;html=1;strokeWidth=2;fontColor=#333333;" parent="8962rQQDY3VNNf6We3Pp-1" vertex="1">
          <mxGeometry x="208" y="288.5" width="93" height="31" as="geometry">
            <mxRectangle width="93" height="31" as="alternateBounds" />
          </mxGeometry>
        </mxCell>
        <mxCell id="lKQoEcg4JDYgAveYxKwX-46" value="metric tonne" style="shape=partialRectangle;html=1;whiteSpace=wrap;connectable=0;fillColor=none;top=0;left=0;bottom=0;right=0;overflow=hidden;strokeColor=inherit;fontSize=16;align=left;" parent="8962rQQDY3VNNf6We3Pp-1" vertex="1">
          <mxGeometry x="302" y="288.5" width="98" height="28.5" as="geometry">
            <mxRectangle width="156" height="30" as="alternateBounds" />
          </mxGeometry>
        </mxCell>
        <mxCell id="lKQoEcg4JDYgAveYxKwX-47" value="Displacement" style="shape=partialRectangle;html=1;whiteSpace=wrap;connectable=0;fillColor=none;top=0;left=0;bottom=0;right=0;overflow=hidden;strokeColor=inherit;fontSize=16;align=left;" parent="8962rQQDY3VNNf6We3Pp-1" vertex="1">
          <mxGeometry x="53" y="288.5" width="156" height="30" as="geometry">
            <mxRectangle width="156" height="30" as="alternateBounds" />
          </mxGeometry>
        </mxCell>
        <mxCell id="lKQoEcg4JDYgAveYxKwX-48" value="Center of Gravity" style="shape=partialRectangle;html=1;whiteSpace=wrap;connectable=0;fillColor=none;top=0;left=0;bottom=0;right=0;overflow=hidden;strokeColor=inherit;fontSize=16;align=left;" parent="8962rQQDY3VNNf6We3Pp-1" vertex="1">
          <mxGeometry x="53" y="327.5" width="156" height="30" as="geometry">
            <mxRectangle width="156" height="30" as="alternateBounds" />
          </mxGeometry>
        </mxCell>
        <mxCell id="lKQoEcg4JDYgAveYxKwX-49" value="75" style="connectable=0;recursiveResize=0;strokeColor=#100f0f;fillColor=#f5f5f5;whiteSpace=wrap;html=1;strokeWidth=2;fontColor=#333333;" parent="8962rQQDY3VNNf6We3Pp-1" vertex="1">
          <mxGeometry x="209" y="327.5" width="61" height="31" as="geometry">
            <mxRectangle width="93" height="31" as="alternateBounds" />
          </mxGeometry>
        </mxCell>
        <mxCell id="lKQoEcg4JDYgAveYxKwX-50" value="150" style="connectable=0;recursiveResize=0;strokeColor=#100f0f;fillColor=#f5f5f5;whiteSpace=wrap;html=1;strokeWidth=2;fontColor=#333333;" parent="8962rQQDY3VNNf6We3Pp-1" vertex="1">
          <mxGeometry x="209" y="370" width="93" height="31" as="geometry">
            <mxRectangle width="93" height="31" as="alternateBounds" />
          </mxGeometry>
        </mxCell>
        <mxCell id="lKQoEcg4JDYgAveYxKwX-17" value="Water Temperature" style="shape=partialRectangle;html=1;whiteSpace=wrap;connectable=0;fillColor=none;top=0;left=0;bottom=0;right=0;overflow=hidden;strokeColor=inherit;fontSize=16;align=left;" parent="8962rQQDY3VNNf6We3Pp-1" vertex="1">
          <mxGeometry x="53" y="371" width="156" height="30" as="geometry">
            <mxRectangle width="156" height="30" as="alternateBounds" />
          </mxGeometry>
        </mxCell>
        <mxCell id="lKQoEcg4JDYgAveYxKwX-51" value="Water Type" style="shape=partialRectangle;html=1;whiteSpace=wrap;connectable=0;fillColor=none;top=0;left=0;bottom=0;right=0;overflow=hidden;strokeColor=inherit;fontSize=16;align=left;" parent="8962rQQDY3VNNf6We3Pp-1" vertex="1">
          <mxGeometry x="53" y="412" width="156" height="30" as="geometry">
            <mxRectangle width="156" height="30" as="alternateBounds" />
          </mxGeometry>
        </mxCell>
        <mxCell id="lKQoEcg4JDYgAveYxKwX-52" value="Velocity" style="shape=partialRectangle;html=1;whiteSpace=wrap;connectable=0;fillColor=none;top=0;left=0;bottom=0;right=0;overflow=hidden;strokeColor=inherit;fontSize=16;align=left;" parent="8962rQQDY3VNNf6We3Pp-1" vertex="1">
          <mxGeometry x="53" y="450" width="156" height="30" as="geometry">
            <mxRectangle width="156" height="30" as="alternateBounds" />
          </mxGeometry>
        </mxCell>
        <mxCell id="lKQoEcg4JDYgAveYxKwX-54" value="5" style="connectable=0;recursiveResize=0;strokeColor=#100f0f;fillColor=#f5f5f5;whiteSpace=wrap;html=1;strokeWidth=2;fontColor=#333333;" parent="8962rQQDY3VNNf6We3Pp-1" vertex="1">
          <mxGeometry x="209" y="450" width="93" height="31" as="geometry">
            <mxRectangle width="93" height="31" as="alternateBounds" />
          </mxGeometry>
        </mxCell>
        <mxCell id="lKQoEcg4JDYgAveYxKwX-55" value="0" style="connectable=0;recursiveResize=0;strokeColor=#100f0f;fillColor=#f5f5f5;whiteSpace=wrap;html=1;strokeWidth=2;fontColor=#333333;" parent="8962rQQDY3VNNf6We3Pp-1" vertex="1">
          <mxGeometry x="302" y="327.5" width="58" height="31" as="geometry">
            <mxRectangle width="93" height="31" as="alternateBounds" />
          </mxGeometry>
        </mxCell>
        <mxCell id="lKQoEcg4JDYgAveYxKwX-56" value="m" style="shape=partialRectangle;html=1;whiteSpace=wrap;connectable=0;fillColor=none;top=0;left=0;bottom=0;right=0;overflow=hidden;strokeColor=inherit;fontSize=16;align=left;" parent="8962rQQDY3VNNf6We3Pp-1" vertex="1">
          <mxGeometry x="279" y="330" width="32" height="28.5" as="geometry">
            <mxRectangle width="156" height="30" as="alternateBounds" />
          </mxGeometry>
        </mxCell>
        <mxCell id="lKQoEcg4JDYgAveYxKwX-57" value="m" style="shape=partialRectangle;html=1;whiteSpace=wrap;connectable=0;fillColor=none;top=0;left=0;bottom=0;right=0;overflow=hidden;strokeColor=inherit;fontSize=16;align=left;" parent="8962rQQDY3VNNf6We3Pp-1" vertex="1">
          <mxGeometry x="370" y="327.5" width="32" height="28.5" as="geometry">
            <mxRectangle width="156" height="30" as="alternateBounds" />
          </mxGeometry>
        </mxCell>
        <mxCell id="lKQoEcg4JDYgAveYxKwX-58" value="m" style="shape=partialRectangle;html=1;whiteSpace=wrap;connectable=0;fillColor=none;top=0;left=0;bottom=0;right=0;overflow=hidden;strokeColor=inherit;fontSize=16;align=left;" parent="8962rQQDY3VNNf6We3Pp-1" vertex="1">
          <mxGeometry x="311" y="370" width="32" height="28.5" as="geometry">
            <mxRectangle width="156" height="30" as="alternateBounds" />
          </mxGeometry>
        </mxCell>
        <mxCell id="lKQoEcg4JDYgAveYxKwX-60" value="m/s" style="shape=partialRectangle;html=1;whiteSpace=wrap;connectable=0;fillColor=none;top=0;left=0;bottom=0;right=0;overflow=hidden;strokeColor=inherit;fontSize=16;align=left;" parent="8962rQQDY3VNNf6We3Pp-1" vertex="1">
          <mxGeometry x="311" y="450" width="32" height="28.5" as="geometry">
            <mxRectangle width="156" height="30" as="alternateBounds" />
          </mxGeometry>
        </mxCell>
        <mxCell id="lKQoEcg4JDYgAveYxKwX-61" value="Fresh" style="html=1;shadow=0;dashed=0;shape=mxgraph.bootstrap.radioButton2;labelPosition=right;verticalLabelPosition=middle;align=left;verticalAlign=middle;gradientColor=#DEDEDE;fillColor=#EDEDED;checked=0;spacing=5;checkedFill=#0085FC;checkedStroke=#ffffff;strokeColor=#100f0f;strokeWidth=2;labelBackgroundColor=default;" parent="8962rQQDY3VNNf6We3Pp-1" vertex="1">
          <mxGeometry x="209" y="420.25" width="10" height="10" as="geometry" />
        </mxCell>
        <mxCell id="lKQoEcg4JDYgAveYxKwX-62" value="Sea" style="html=1;shadow=0;dashed=0;shape=mxgraph.bootstrap.radioButton2;labelPosition=right;verticalLabelPosition=middle;align=left;verticalAlign=middle;gradientColor=#DEDEDE;fillColor=#EDEDED;checked=0;spacing=5;checkedFill=#0085FC;checkedStroke=#ffffff;strokeColor=#100f0f;strokeWidth=2;" parent="8962rQQDY3VNNf6We3Pp-1" vertex="1">
          <mxGeometry x="260" y="420.25" width="10" height="10" as="geometry" />
        </mxCell>
        <mxCell id="lKQoEcg4JDYgAveYxKwX-91" value="Continue" style="strokeWidth=1;shadow=0;dashed=0;align=center;html=1;shape=mxgraph.mockup.buttons.button;strokeColor=#666666;fontColor=#ffffff;mainText=;buttonStyle=round;fontSize=17;fontStyle=1;fillColor=#008cff;whiteSpace=wrap;" parent="8962rQQDY3VNNf6We3Pp-1" vertex="1">
          <mxGeometry x="60" y="540" width="90" height="20" as="geometry" />
        </mxCell>
        <mxCell id="lKQoEcg4JDYgAveYxKwX-92" value="Import Geometry" style="strokeWidth=1;shadow=0;dashed=0;align=center;html=1;shape=mxgraph.mockup.buttons.button;strokeColor=#666666;fontColor=#ffffff;mainText=;buttonStyle=round;fontSize=17;fontStyle=1;fillColor=#008cff;whiteSpace=wrap;" parent="8962rQQDY3VNNf6We3Pp-1" vertex="1">
          <mxGeometry x="50.5" y="200" width="160" height="20" as="geometry" />
        </mxCell>
      </root>
    </mxGraphModel>
  </diagram>
</mxfile>
